<mxfile host="app.diagrams.net" modified="2023-12-20T14:58:27.788Z" agent="Mozilla/5.0 (Windows NT 10.0; Win64; x64) AppleWebKit/537.36 (KHTML, like Gecko) Chrome/120.0.0.0 Safari/537.36" etag="igQa9XGdMLm8ZYnwTIEY" version="22.1.11" type="github">
  <diagram id="C5RBs43oDa-KdzZeNtuy" name="Page-1">
    <mxGraphModel dx="1656" dy="1790" grid="1" gridSize="10" guides="1" tooltips="1" connect="1" arrows="1" fold="1" page="0" pageScale="1" pageWidth="900" pageHeight="1600" math="0" shadow="0">
      <root>
        <mxCell id="WIyWlLk6GJQsqaUBKTNV-0" />
        <mxCell id="WIyWlLk6GJQsqaUBKTNV-1" parent="WIyWlLk6GJQsqaUBKTNV-0" />
        <mxCell id="yXXLYNOuBSX8wuwPwn-O-1" value="" style="edgeStyle=orthogonalEdgeStyle;rounded=0;orthogonalLoop=1;jettySize=auto;html=1;" parent="WIyWlLk6GJQsqaUBKTNV-1" source="WIyWlLk6GJQsqaUBKTNV-3" target="yXXLYNOuBSX8wuwPwn-O-0" edge="1">
          <mxGeometry relative="1" as="geometry" />
        </mxCell>
        <mxCell id="WIyWlLk6GJQsqaUBKTNV-3" value="Start()" style="rounded=1;whiteSpace=wrap;html=1;fontSize=12;glass=0;strokeWidth=1;shadow=0;" parent="WIyWlLk6GJQsqaUBKTNV-1" vertex="1">
          <mxGeometry x="-1" y="-449" width="120" height="40" as="geometry" />
        </mxCell>
        <mxCell id="yXXLYNOuBSX8wuwPwn-O-3" value="" style="edgeStyle=orthogonalEdgeStyle;rounded=0;orthogonalLoop=1;jettySize=auto;html=1;" parent="WIyWlLk6GJQsqaUBKTNV-1" source="yXXLYNOuBSX8wuwPwn-O-0" target="yXXLYNOuBSX8wuwPwn-O-2" edge="1">
          <mxGeometry relative="1" as="geometry" />
        </mxCell>
        <mxCell id="yXXLYNOuBSX8wuwPwn-O-0" value="Configuration File" style="whiteSpace=wrap;html=1;rounded=1;glass=0;strokeWidth=1;shadow=0;" parent="WIyWlLk6GJQsqaUBKTNV-1" vertex="1">
          <mxGeometry x="-1" y="-379" width="120" height="40" as="geometry" />
        </mxCell>
        <mxCell id="yXXLYNOuBSX8wuwPwn-O-203" value="" style="edgeStyle=orthogonalEdgeStyle;rounded=0;orthogonalLoop=1;jettySize=auto;html=1;shape=link;" parent="WIyWlLk6GJQsqaUBKTNV-1" source="yXXLYNOuBSX8wuwPwn-O-2" target="yXXLYNOuBSX8wuwPwn-O-202" edge="1">
          <mxGeometry relative="1" as="geometry" />
        </mxCell>
        <mxCell id="yXXLYNOuBSX8wuwPwn-O-247" style="edgeStyle=orthogonalEdgeStyle;rounded=0;orthogonalLoop=1;jettySize=auto;html=1;entryX=0.5;entryY=0;entryDx=0;entryDy=0;" parent="WIyWlLk6GJQsqaUBKTNV-1" source="yXXLYNOuBSX8wuwPwn-O-2" target="yXXLYNOuBSX8wuwPwn-O-6" edge="1">
          <mxGeometry relative="1" as="geometry" />
        </mxCell>
        <mxCell id="yXXLYNOuBSX8wuwPwn-O-2" value="Setup Server Structure" style="whiteSpace=wrap;html=1;rounded=1;glass=0;strokeWidth=1;shadow=0;" parent="WIyWlLk6GJQsqaUBKTNV-1" vertex="1">
          <mxGeometry x="-1" y="-309" width="120" height="40" as="geometry" />
        </mxCell>
        <mxCell id="yXXLYNOuBSX8wuwPwn-O-197" value="" style="edgeStyle=orthogonalEdgeStyle;rounded=0;orthogonalLoop=1;jettySize=auto;html=1;shape=link;" parent="WIyWlLk6GJQsqaUBKTNV-1" source="yXXLYNOuBSX8wuwPwn-O-6" target="yXXLYNOuBSX8wuwPwn-O-196" edge="1">
          <mxGeometry relative="1" as="geometry" />
        </mxCell>
        <mxCell id="yXXLYNOuBSX8wuwPwn-O-6" value="Epoll" style="whiteSpace=wrap;html=1;rounded=1;glass=0;strokeWidth=1;shadow=0;" parent="WIyWlLk6GJQsqaUBKTNV-1" vertex="1">
          <mxGeometry x="-1" y="80" width="120" height="40" as="geometry" />
        </mxCell>
        <mxCell id="yXXLYNOuBSX8wuwPwn-O-14" value="" style="edgeStyle=orthogonalEdgeStyle;rounded=0;orthogonalLoop=1;jettySize=auto;html=1;" parent="WIyWlLk6GJQsqaUBKTNV-1" source="yXXLYNOuBSX8wuwPwn-O-9" target="yXXLYNOuBSX8wuwPwn-O-13" edge="1">
          <mxGeometry relative="1" as="geometry" />
        </mxCell>
        <mxCell id="yXXLYNOuBSX8wuwPwn-O-15" value="Listener" style="edgeLabel;html=1;align=center;verticalAlign=middle;resizable=0;points=[];" parent="yXXLYNOuBSX8wuwPwn-O-14" vertex="1" connectable="0">
          <mxGeometry x="-0.2471" y="-1" relative="1" as="geometry">
            <mxPoint as="offset" />
          </mxGeometry>
        </mxCell>
        <mxCell id="yXXLYNOuBSX8wuwPwn-O-17" value="" style="edgeStyle=orthogonalEdgeStyle;rounded=0;orthogonalLoop=1;jettySize=auto;html=1;" parent="WIyWlLk6GJQsqaUBKTNV-1" source="yXXLYNOuBSX8wuwPwn-O-9" target="yXXLYNOuBSX8wuwPwn-O-16" edge="1">
          <mxGeometry relative="1" as="geometry" />
        </mxCell>
        <mxCell id="yXXLYNOuBSX8wuwPwn-O-9" value="epoll_wait()" style="rhombus;whiteSpace=wrap;html=1;rounded=1;glass=0;strokeWidth=1;shadow=0;fillColor=#bac8d3;strokeColor=#23445d;" parent="WIyWlLk6GJQsqaUBKTNV-1" vertex="1">
          <mxGeometry x="308" y="370" width="120" height="50" as="geometry" />
        </mxCell>
        <mxCell id="yXXLYNOuBSX8wuwPwn-O-27" value="" style="edgeStyle=orthogonalEdgeStyle;rounded=0;orthogonalLoop=1;jettySize=auto;html=1;" parent="WIyWlLk6GJQsqaUBKTNV-1" source="yXXLYNOuBSX8wuwPwn-O-13" target="yXXLYNOuBSX8wuwPwn-O-26" edge="1">
          <mxGeometry relative="1" as="geometry" />
        </mxCell>
        <mxCell id="yXXLYNOuBSX8wuwPwn-O-13" value="accept()" style="whiteSpace=wrap;html=1;rounded=1;glass=0;strokeWidth=1;shadow=0;fillColor=#008a00;strokeColor=#005700;fontColor=#ffffff;" parent="WIyWlLk6GJQsqaUBKTNV-1" vertex="1">
          <mxGeometry x="308" y="483" width="120" height="45" as="geometry" />
        </mxCell>
        <mxCell id="yXXLYNOuBSX8wuwPwn-O-19" value="" style="edgeStyle=orthogonalEdgeStyle;rounded=0;orthogonalLoop=1;jettySize=auto;html=1;entryX=0.5;entryY=0;entryDx=0;entryDy=0;" parent="WIyWlLk6GJQsqaUBKTNV-1" source="yXXLYNOuBSX8wuwPwn-O-16" target="yXXLYNOuBSX8wuwPwn-O-82" edge="1">
          <mxGeometry relative="1" as="geometry">
            <mxPoint x="750" y="465" as="targetPoint" />
          </mxGeometry>
        </mxCell>
        <mxCell id="yXXLYNOuBSX8wuwPwn-O-20" value="EPOLLIN" style="edgeLabel;html=1;align=center;verticalAlign=middle;resizable=0;points=[];" parent="yXXLYNOuBSX8wuwPwn-O-19" vertex="1" connectable="0">
          <mxGeometry x="-0.2471" y="1" relative="1" as="geometry">
            <mxPoint as="offset" />
          </mxGeometry>
        </mxCell>
        <mxCell id="yXXLYNOuBSX8wuwPwn-O-22" value="EPOLLOUT" style="edgeStyle=orthogonalEdgeStyle;rounded=0;orthogonalLoop=1;jettySize=auto;html=1;" parent="WIyWlLk6GJQsqaUBKTNV-1" source="yXXLYNOuBSX8wuwPwn-O-16" target="yXXLYNOuBSX8wuwPwn-O-21" edge="1">
          <mxGeometry x="-0.0031" relative="1" as="geometry">
            <mxPoint as="offset" />
          </mxGeometry>
        </mxCell>
        <mxCell id="yXXLYNOuBSX8wuwPwn-O-24" value="" style="edgeStyle=orthogonalEdgeStyle;rounded=0;orthogonalLoop=1;jettySize=auto;html=1;" parent="WIyWlLk6GJQsqaUBKTNV-1" source="yXXLYNOuBSX8wuwPwn-O-16" target="yXXLYNOuBSX8wuwPwn-O-23" edge="1">
          <mxGeometry relative="1" as="geometry" />
        </mxCell>
        <mxCell id="yXXLYNOuBSX8wuwPwn-O-25" value="EPOLLHUP&lt;br&gt;EPOLLERR" style="edgeLabel;html=1;align=center;verticalAlign=middle;resizable=0;points=[];" parent="yXXLYNOuBSX8wuwPwn-O-24" vertex="1" connectable="0">
          <mxGeometry x="-0.0407" y="2" relative="1" as="geometry">
            <mxPoint as="offset" />
          </mxGeometry>
        </mxCell>
        <mxCell id="yXXLYNOuBSX8wuwPwn-O-16" value="events" style="rhombus;whiteSpace=wrap;html=1;rounded=1;glass=0;strokeWidth=1;shadow=0;" parent="WIyWlLk6GJQsqaUBKTNV-1" vertex="1">
          <mxGeometry x="763" y="370" width="120" height="50" as="geometry" />
        </mxCell>
        <mxCell id="yXXLYNOuBSX8wuwPwn-O-49" value="" style="edgeStyle=orthogonalEdgeStyle;rounded=0;orthogonalLoop=1;jettySize=auto;html=1;" parent="WIyWlLk6GJQsqaUBKTNV-1" source="yXXLYNOuBSX8wuwPwn-O-21" target="yXXLYNOuBSX8wuwPwn-O-48" edge="1">
          <mxGeometry relative="1" as="geometry" />
        </mxCell>
        <mxCell id="YRQwu3OQHLb-Ya9GeAHd-22" value="" style="edgeStyle=orthogonalEdgeStyle;rounded=0;orthogonalLoop=1;jettySize=auto;html=1;shape=link;" edge="1" parent="WIyWlLk6GJQsqaUBKTNV-1" source="yXXLYNOuBSX8wuwPwn-O-21" target="YRQwu3OQHLb-Ya9GeAHd-21">
          <mxGeometry relative="1" as="geometry" />
        </mxCell>
        <mxCell id="yXXLYNOuBSX8wuwPwn-O-21" value="process_response" style="whiteSpace=wrap;html=1;rounded=1;glass=0;strokeWidth=1;shadow=0;fillColor=#e1d5e7;strokeColor=#9673a6;" parent="WIyWlLk6GJQsqaUBKTNV-1" vertex="1">
          <mxGeometry x="981" y="375" width="120" height="40" as="geometry" />
        </mxCell>
        <mxCell id="yXXLYNOuBSX8wuwPwn-O-166" style="edgeStyle=orthogonalEdgeStyle;rounded=0;orthogonalLoop=1;jettySize=auto;html=1;entryX=0.5;entryY=0;entryDx=0;entryDy=0;" parent="WIyWlLk6GJQsqaUBKTNV-1" source="yXXLYNOuBSX8wuwPwn-O-23" target="yXXLYNOuBSX8wuwPwn-O-43" edge="1">
          <mxGeometry relative="1" as="geometry" />
        </mxCell>
        <mxCell id="yXXLYNOuBSX8wuwPwn-O-23" value="handling_error()" style="whiteSpace=wrap;html=1;rounded=1;glass=0;strokeWidth=1;shadow=0;" parent="WIyWlLk6GJQsqaUBKTNV-1" vertex="1">
          <mxGeometry x="763" y="249" width="120" height="45" as="geometry" />
        </mxCell>
        <mxCell id="yXXLYNOuBSX8wuwPwn-O-29" value="" style="edgeStyle=orthogonalEdgeStyle;rounded=0;orthogonalLoop=1;jettySize=auto;html=1;" parent="WIyWlLk6GJQsqaUBKTNV-1" source="yXXLYNOuBSX8wuwPwn-O-26" target="yXXLYNOuBSX8wuwPwn-O-28" edge="1">
          <mxGeometry relative="1" as="geometry" />
        </mxCell>
        <mxCell id="yXXLYNOuBSX8wuwPwn-O-26" value="set EPOLLIN" style="whiteSpace=wrap;html=1;rounded=1;glass=0;strokeWidth=1;shadow=0;fillColor=#0050ef;strokeColor=#001DBC;fontColor=#ffffff;" parent="WIyWlLk6GJQsqaUBKTNV-1" vertex="1">
          <mxGeometry x="308" y="585" width="120" height="40" as="geometry" />
        </mxCell>
        <mxCell id="yXXLYNOuBSX8wuwPwn-O-46" style="edgeStyle=orthogonalEdgeStyle;rounded=0;orthogonalLoop=1;jettySize=auto;html=1;entryX=0.5;entryY=1;entryDx=0;entryDy=0;" parent="WIyWlLk6GJQsqaUBKTNV-1" source="yXXLYNOuBSX8wuwPwn-O-28" target="yXXLYNOuBSX8wuwPwn-O-43" edge="1">
          <mxGeometry relative="1" as="geometry" />
        </mxCell>
        <mxCell id="yXXLYNOuBSX8wuwPwn-O-28" value="" style="ellipse;whiteSpace=wrap;html=1;rounded=1;glass=0;strokeWidth=1;shadow=0;" parent="WIyWlLk6GJQsqaUBKTNV-1" vertex="1">
          <mxGeometry x="358" y="675" width="20" height="20" as="geometry" />
        </mxCell>
        <mxCell id="yXXLYNOuBSX8wuwPwn-O-104" value="" style="edgeStyle=orthogonalEdgeStyle;rounded=0;orthogonalLoop=1;jettySize=auto;html=1;" parent="WIyWlLk6GJQsqaUBKTNV-1" source="yXXLYNOuBSX8wuwPwn-O-32" target="yXXLYNOuBSX8wuwPwn-O-34" edge="1">
          <mxGeometry relative="1" as="geometry" />
        </mxCell>
        <mxCell id="yXXLYNOuBSX8wuwPwn-O-105" value="bf = 0" style="edgeLabel;html=1;align=center;verticalAlign=middle;resizable=0;points=[];" parent="yXXLYNOuBSX8wuwPwn-O-104" vertex="1" connectable="0">
          <mxGeometry x="0.2095" y="-1" relative="1" as="geometry">
            <mxPoint y="-8" as="offset" />
          </mxGeometry>
        </mxCell>
        <mxCell id="yXXLYNOuBSX8wuwPwn-O-108" style="edgeStyle=orthogonalEdgeStyle;rounded=0;orthogonalLoop=1;jettySize=auto;html=1;entryX=0.5;entryY=0;entryDx=0;entryDy=0;" parent="WIyWlLk6GJQsqaUBKTNV-1" target="yXXLYNOuBSX8wuwPwn-O-50" edge="1">
          <mxGeometry relative="1" as="geometry">
            <mxPoint x="530.0000000000002" y="503.0000000000001" as="sourcePoint" />
            <mxPoint x="466" y="675.5" as="targetPoint" />
          </mxGeometry>
        </mxCell>
        <mxCell id="yXXLYNOuBSX8wuwPwn-O-110" value="bf &amp;gt; 0" style="edgeLabel;html=1;align=center;verticalAlign=middle;resizable=0;points=[];" parent="yXXLYNOuBSX8wuwPwn-O-108" vertex="1" connectable="0">
          <mxGeometry x="-0.5215" y="-1" relative="1" as="geometry">
            <mxPoint x="27" y="-3" as="offset" />
          </mxGeometry>
        </mxCell>
        <mxCell id="yXXLYNOuBSX8wuwPwn-O-32" value="recv()" style="rhombus;whiteSpace=wrap;html=1;rounded=1;glass=0;strokeWidth=1;shadow=0;fillColor=#ffe6cc;strokeColor=#d79b00;" parent="WIyWlLk6GJQsqaUBKTNV-1" vertex="1">
          <mxGeometry x="530" y="478" width="120" height="50" as="geometry" />
        </mxCell>
        <mxCell id="yXXLYNOuBSX8wuwPwn-O-169" value="" style="edgeStyle=orthogonalEdgeStyle;rounded=0;orthogonalLoop=1;jettySize=auto;html=1;" parent="WIyWlLk6GJQsqaUBKTNV-1" source="yXXLYNOuBSX8wuwPwn-O-34" target="yXXLYNOuBSX8wuwPwn-O-168" edge="1">
          <mxGeometry relative="1" as="geometry" />
        </mxCell>
        <mxCell id="yXXLYNOuBSX8wuwPwn-O-34" value="process_request" style="whiteSpace=wrap;html=1;rounded=1;glass=0;strokeWidth=1;shadow=0;fillColor=#e1d5e7;strokeColor=#9673a6;" parent="WIyWlLk6GJQsqaUBKTNV-1" vertex="1">
          <mxGeometry x="530" y="585" width="120" height="40" as="geometry" />
        </mxCell>
        <mxCell id="yXXLYNOuBSX8wuwPwn-O-45" value="" style="edgeStyle=orthogonalEdgeStyle;rounded=0;orthogonalLoop=1;jettySize=auto;html=1;" parent="WIyWlLk6GJQsqaUBKTNV-1" source="yXXLYNOuBSX8wuwPwn-O-43" target="yXXLYNOuBSX8wuwPwn-O-9" edge="1">
          <mxGeometry relative="1" as="geometry" />
        </mxCell>
        <mxCell id="yXXLYNOuBSX8wuwPwn-O-43" value="" style="ellipse;whiteSpace=wrap;html=1;rounded=1;glass=0;strokeWidth=1;shadow=0;" parent="WIyWlLk6GJQsqaUBKTNV-1" vertex="1">
          <mxGeometry x="255" y="385" width="20" height="20" as="geometry" />
        </mxCell>
        <mxCell id="yXXLYNOuBSX8wuwPwn-O-153" value="" style="edgeStyle=orthogonalEdgeStyle;rounded=0;orthogonalLoop=1;jettySize=auto;html=1;" parent="WIyWlLk6GJQsqaUBKTNV-1" source="yXXLYNOuBSX8wuwPwn-O-48" target="yXXLYNOuBSX8wuwPwn-O-65" edge="1">
          <mxGeometry relative="1" as="geometry" />
        </mxCell>
        <mxCell id="yXXLYNOuBSX8wuwPwn-O-154" value="bf = 0" style="edgeLabel;html=1;align=center;verticalAlign=middle;resizable=0;points=[];" parent="yXXLYNOuBSX8wuwPwn-O-153" vertex="1" connectable="0">
          <mxGeometry x="-0.0456" y="1" relative="1" as="geometry">
            <mxPoint x="-1" as="offset" />
          </mxGeometry>
        </mxCell>
        <mxCell id="yXXLYNOuBSX8wuwPwn-O-164" style="edgeStyle=orthogonalEdgeStyle;rounded=0;orthogonalLoop=1;jettySize=auto;html=1;entryX=1;entryY=0.5;entryDx=0;entryDy=0;" parent="WIyWlLk6GJQsqaUBKTNV-1" source="yXXLYNOuBSX8wuwPwn-O-48" target="yXXLYNOuBSX8wuwPwn-O-160" edge="1">
          <mxGeometry relative="1" as="geometry">
            <Array as="points">
              <mxPoint x="1160" y="504" />
              <mxPoint x="1160" y="865" />
            </Array>
          </mxGeometry>
        </mxCell>
        <mxCell id="yXXLYNOuBSX8wuwPwn-O-165" value="bf &amp;gt; 0" style="edgeLabel;html=1;align=center;verticalAlign=middle;resizable=0;points=[];" parent="yXXLYNOuBSX8wuwPwn-O-164" vertex="1" connectable="0">
          <mxGeometry x="-0.7835" y="2" relative="1" as="geometry">
            <mxPoint x="-32" y="1" as="offset" />
          </mxGeometry>
        </mxCell>
        <mxCell id="yXXLYNOuBSX8wuwPwn-O-48" value="send()" style="rhombus;whiteSpace=wrap;html=1;rounded=1;glass=0;strokeWidth=1;shadow=0;fillColor=#ffe6cc;strokeColor=#d79b00;" parent="WIyWlLk6GJQsqaUBKTNV-1" vertex="1">
          <mxGeometry x="981" y="478.5" width="120" height="50" as="geometry" />
        </mxCell>
        <mxCell id="yXXLYNOuBSX8wuwPwn-O-155" value="" style="edgeStyle=orthogonalEdgeStyle;rounded=0;orthogonalLoop=1;jettySize=auto;html=1;" parent="WIyWlLk6GJQsqaUBKTNV-1" source="yXXLYNOuBSX8wuwPwn-O-65" target="yXXLYNOuBSX8wuwPwn-O-77" edge="1">
          <mxGeometry relative="1" as="geometry" />
        </mxCell>
        <mxCell id="yXXLYNOuBSX8wuwPwn-O-158" value="keep-alive" style="edgeLabel;html=1;align=center;verticalAlign=middle;resizable=0;points=[];" parent="yXXLYNOuBSX8wuwPwn-O-155" vertex="1" connectable="0">
          <mxGeometry x="-0.453" y="1" relative="1" as="geometry">
            <mxPoint x="-1" y="1" as="offset" />
          </mxGeometry>
        </mxCell>
        <mxCell id="yXXLYNOuBSX8wuwPwn-O-156" style="edgeStyle=orthogonalEdgeStyle;rounded=0;orthogonalLoop=1;jettySize=auto;html=1;entryX=1;entryY=0.5;entryDx=0;entryDy=0;" parent="WIyWlLk6GJQsqaUBKTNV-1" source="yXXLYNOuBSX8wuwPwn-O-65" target="yXXLYNOuBSX8wuwPwn-O-72" edge="1">
          <mxGeometry relative="1" as="geometry" />
        </mxCell>
        <mxCell id="yXXLYNOuBSX8wuwPwn-O-157" value="close" style="edgeLabel;html=1;align=center;verticalAlign=middle;resizable=0;points=[];" parent="yXXLYNOuBSX8wuwPwn-O-156" vertex="1" connectable="0">
          <mxGeometry x="-0.6179" relative="1" as="geometry">
            <mxPoint x="-15" y="37" as="offset" />
          </mxGeometry>
        </mxCell>
        <mxCell id="yXXLYNOuBSX8wuwPwn-O-65" value="connection" style="rhombus;whiteSpace=wrap;html=1;rounded=1;glass=0;strokeWidth=1;shadow=0;" parent="WIyWlLk6GJQsqaUBKTNV-1" vertex="1">
          <mxGeometry x="981" y="580" width="120" height="50" as="geometry" />
        </mxCell>
        <mxCell id="yXXLYNOuBSX8wuwPwn-O-175" value="" style="edgeStyle=orthogonalEdgeStyle;rounded=0;orthogonalLoop=1;jettySize=auto;html=1;" parent="WIyWlLk6GJQsqaUBKTNV-1" source="yXXLYNOuBSX8wuwPwn-O-72" target="yXXLYNOuBSX8wuwPwn-O-172" edge="1">
          <mxGeometry relative="1" as="geometry" />
        </mxCell>
        <mxCell id="yXXLYNOuBSX8wuwPwn-O-72" value="close_connection()" style="whiteSpace=wrap;html=1;rounded=1;glass=0;strokeWidth=1;shadow=0;fillColor=#d5e8d4;strokeColor=#82b366;" parent="WIyWlLk6GJQsqaUBKTNV-1" vertex="1">
          <mxGeometry x="763" y="666" width="120" height="40" as="geometry" />
        </mxCell>
        <mxCell id="yXXLYNOuBSX8wuwPwn-O-178" value="" style="edgeStyle=orthogonalEdgeStyle;rounded=0;orthogonalLoop=1;jettySize=auto;html=1;" parent="WIyWlLk6GJQsqaUBKTNV-1" source="yXXLYNOuBSX8wuwPwn-O-77" target="yXXLYNOuBSX8wuwPwn-O-177" edge="1">
          <mxGeometry relative="1" as="geometry" />
        </mxCell>
        <mxCell id="yXXLYNOuBSX8wuwPwn-O-77" value="set EPOLLIN" style="whiteSpace=wrap;html=1;rounded=1;glass=0;strokeWidth=1;shadow=0;fillColor=#0050ef;strokeColor=#001DBC;fontColor=#ffffff;" parent="WIyWlLk6GJQsqaUBKTNV-1" vertex="1">
          <mxGeometry x="981" y="665" width="120" height="40" as="geometry" />
        </mxCell>
        <mxCell id="yXXLYNOuBSX8wuwPwn-O-85" value="" style="edgeStyle=orthogonalEdgeStyle;rounded=0;orthogonalLoop=1;jettySize=auto;html=1;" parent="WIyWlLk6GJQsqaUBKTNV-1" source="yXXLYNOuBSX8wuwPwn-O-82" target="yXXLYNOuBSX8wuwPwn-O-84" edge="1">
          <mxGeometry relative="1" as="geometry" />
        </mxCell>
        <mxCell id="yXXLYNOuBSX8wuwPwn-O-86" value="COMPLETED" style="edgeLabel;html=1;align=center;verticalAlign=middle;resizable=0;points=[];" parent="yXXLYNOuBSX8wuwPwn-O-85" vertex="1" connectable="0">
          <mxGeometry x="0.1159" y="1" relative="1" as="geometry">
            <mxPoint x="-1" y="-6" as="offset" />
          </mxGeometry>
        </mxCell>
        <mxCell id="yXXLYNOuBSX8wuwPwn-O-102" value="" style="edgeStyle=orthogonalEdgeStyle;rounded=0;orthogonalLoop=1;jettySize=auto;html=1;" parent="WIyWlLk6GJQsqaUBKTNV-1" source="yXXLYNOuBSX8wuwPwn-O-82" target="yXXLYNOuBSX8wuwPwn-O-32" edge="1">
          <mxGeometry relative="1" as="geometry" />
        </mxCell>
        <mxCell id="yXXLYNOuBSX8wuwPwn-O-103" value="PROCESSING" style="edgeLabel;html=1;align=center;verticalAlign=middle;resizable=0;points=[];" parent="yXXLYNOuBSX8wuwPwn-O-102" vertex="1" connectable="0">
          <mxGeometry x="-0.1185" y="1" relative="1" as="geometry">
            <mxPoint y="-1" as="offset" />
          </mxGeometry>
        </mxCell>
        <mxCell id="yXXLYNOuBSX8wuwPwn-O-82" value="FLAG" style="rhombus;whiteSpace=wrap;html=1;rounded=1;glass=0;strokeWidth=1;shadow=0;fillColor=#f5f5f5;strokeColor=#666666;fontColor=#333333;" parent="WIyWlLk6GJQsqaUBKTNV-1" vertex="1">
          <mxGeometry x="763" y="479.5" width="120" height="50" as="geometry" />
        </mxCell>
        <mxCell id="yXXLYNOuBSX8wuwPwn-O-173" style="edgeStyle=orthogonalEdgeStyle;rounded=0;orthogonalLoop=1;jettySize=auto;html=1;entryX=0.5;entryY=0;entryDx=0;entryDy=0;" parent="WIyWlLk6GJQsqaUBKTNV-1" source="yXXLYNOuBSX8wuwPwn-O-84" target="yXXLYNOuBSX8wuwPwn-O-172" edge="1">
          <mxGeometry relative="1" as="geometry" />
        </mxCell>
        <mxCell id="yXXLYNOuBSX8wuwPwn-O-176" value="No" style="edgeLabel;html=1;align=center;verticalAlign=middle;resizable=0;points=[];" parent="yXXLYNOuBSX8wuwPwn-O-173" vertex="1" connectable="0">
          <mxGeometry x="-0.4015" relative="1" as="geometry">
            <mxPoint x="10" y="-1" as="offset" />
          </mxGeometry>
        </mxCell>
        <mxCell id="yXXLYNOuBSX8wuwPwn-O-84" value="time_out" style="rhombus;whiteSpace=wrap;html=1;rounded=1;glass=0;strokeWidth=1;shadow=0;" parent="WIyWlLk6GJQsqaUBKTNV-1" vertex="1">
          <mxGeometry x="763" y="579" width="120" height="50" as="geometry" />
        </mxCell>
        <mxCell id="yXXLYNOuBSX8wuwPwn-O-94" value="" style="edgeStyle=orthogonalEdgeStyle;rounded=0;orthogonalLoop=1;jettySize=auto;html=1;" parent="WIyWlLk6GJQsqaUBKTNV-1" source="yXXLYNOuBSX8wuwPwn-O-50" target="yXXLYNOuBSX8wuwPwn-O-28" edge="1">
          <mxGeometry relative="1" as="geometry" />
        </mxCell>
        <mxCell id="yXXLYNOuBSX8wuwPwn-O-50" value="" style="ellipse;whiteSpace=wrap;html=1;rounded=1;glass=0;strokeWidth=1;shadow=0;" parent="WIyWlLk6GJQsqaUBKTNV-1" vertex="1">
          <mxGeometry x="469" y="675.5" width="20" height="20" as="geometry" />
        </mxCell>
        <mxCell id="yXXLYNOuBSX8wuwPwn-O-115" value="" style="edgeStyle=orthogonalEdgeStyle;rounded=0;orthogonalLoop=1;jettySize=auto;html=1;" parent="WIyWlLk6GJQsqaUBKTNV-1" source="yXXLYNOuBSX8wuwPwn-O-113" target="yXXLYNOuBSX8wuwPwn-O-50" edge="1">
          <mxGeometry relative="1" as="geometry" />
        </mxCell>
        <mxCell id="yXXLYNOuBSX8wuwPwn-O-113" value="" style="ellipse;whiteSpace=wrap;html=1;rounded=1;glass=0;strokeWidth=1;shadow=0;" parent="WIyWlLk6GJQsqaUBKTNV-1" vertex="1">
          <mxGeometry x="580" y="765" width="20" height="20" as="geometry" />
        </mxCell>
        <mxCell id="yXXLYNOuBSX8wuwPwn-O-171" value="" style="edgeStyle=orthogonalEdgeStyle;rounded=0;orthogonalLoop=1;jettySize=auto;html=1;" parent="WIyWlLk6GJQsqaUBKTNV-1" source="yXXLYNOuBSX8wuwPwn-O-120" target="yXXLYNOuBSX8wuwPwn-O-113" edge="1">
          <mxGeometry relative="1" as="geometry" />
        </mxCell>
        <mxCell id="yXXLYNOuBSX8wuwPwn-O-120" value="" style="ellipse;whiteSpace=wrap;html=1;rounded=1;glass=0;strokeWidth=1;shadow=0;" parent="WIyWlLk6GJQsqaUBKTNV-1" vertex="1">
          <mxGeometry x="693" y="765" width="20" height="20" as="geometry" />
        </mxCell>
        <mxCell id="yXXLYNOuBSX8wuwPwn-O-140" style="edgeStyle=orthogonalEdgeStyle;rounded=0;orthogonalLoop=1;jettySize=auto;html=1;entryX=0.5;entryY=0;entryDx=0;entryDy=0;" parent="WIyWlLk6GJQsqaUBKTNV-1" source="yXXLYNOuBSX8wuwPwn-O-84" target="yXXLYNOuBSX8wuwPwn-O-72" edge="1">
          <mxGeometry relative="1" as="geometry" />
        </mxCell>
        <mxCell id="yXXLYNOuBSX8wuwPwn-O-142" value="Yes" style="edgeLabel;html=1;align=center;verticalAlign=middle;resizable=0;points=[];" parent="yXXLYNOuBSX8wuwPwn-O-140" vertex="1" connectable="0">
          <mxGeometry x="-0.5" y="2" relative="1" as="geometry">
            <mxPoint x="-2" y="2" as="offset" />
          </mxGeometry>
        </mxCell>
        <mxCell id="yXXLYNOuBSX8wuwPwn-O-163" style="edgeStyle=orthogonalEdgeStyle;rounded=0;orthogonalLoop=1;jettySize=auto;html=1;entryX=0.5;entryY=1;entryDx=0;entryDy=0;" parent="WIyWlLk6GJQsqaUBKTNV-1" source="yXXLYNOuBSX8wuwPwn-O-160" target="yXXLYNOuBSX8wuwPwn-O-120" edge="1">
          <mxGeometry relative="1" as="geometry">
            <mxPoint x="890" y="805" as="targetPoint" />
          </mxGeometry>
        </mxCell>
        <mxCell id="yXXLYNOuBSX8wuwPwn-O-160" value="" style="ellipse;whiteSpace=wrap;html=1;rounded=1;glass=0;strokeWidth=1;shadow=0;" parent="WIyWlLk6GJQsqaUBKTNV-1" vertex="1">
          <mxGeometry x="1031" y="855" width="20" height="20" as="geometry" />
        </mxCell>
        <mxCell id="yXXLYNOuBSX8wuwPwn-O-170" value="" style="edgeStyle=orthogonalEdgeStyle;rounded=0;orthogonalLoop=1;jettySize=auto;html=1;" parent="WIyWlLk6GJQsqaUBKTNV-1" source="yXXLYNOuBSX8wuwPwn-O-168" target="yXXLYNOuBSX8wuwPwn-O-113" edge="1">
          <mxGeometry relative="1" as="geometry" />
        </mxCell>
        <mxCell id="yXXLYNOuBSX8wuwPwn-O-168" value="set EPOLLOUT" style="whiteSpace=wrap;html=1;rounded=1;glass=0;strokeWidth=1;shadow=0;fillColor=#a20025;strokeColor=#6F0000;fontColor=#ffffff;" parent="WIyWlLk6GJQsqaUBKTNV-1" vertex="1">
          <mxGeometry x="530" y="665.5" width="120" height="40" as="geometry" />
        </mxCell>
        <mxCell id="yXXLYNOuBSX8wuwPwn-O-174" value="" style="edgeStyle=orthogonalEdgeStyle;rounded=0;orthogonalLoop=1;jettySize=auto;html=1;" parent="WIyWlLk6GJQsqaUBKTNV-1" source="yXXLYNOuBSX8wuwPwn-O-172" target="yXXLYNOuBSX8wuwPwn-O-120" edge="1">
          <mxGeometry relative="1" as="geometry" />
        </mxCell>
        <mxCell id="yXXLYNOuBSX8wuwPwn-O-172" value="" style="ellipse;whiteSpace=wrap;html=1;rounded=1;glass=0;strokeWidth=1;shadow=0;" parent="WIyWlLk6GJQsqaUBKTNV-1" vertex="1">
          <mxGeometry x="693" y="675.5" width="20" height="20" as="geometry" />
        </mxCell>
        <mxCell id="yXXLYNOuBSX8wuwPwn-O-179" value="" style="edgeStyle=orthogonalEdgeStyle;rounded=0;orthogonalLoop=1;jettySize=auto;html=1;" parent="WIyWlLk6GJQsqaUBKTNV-1" source="yXXLYNOuBSX8wuwPwn-O-177" target="yXXLYNOuBSX8wuwPwn-O-160" edge="1">
          <mxGeometry relative="1" as="geometry" />
        </mxCell>
        <mxCell id="yXXLYNOuBSX8wuwPwn-O-177" value="flag COMPLETED" style="whiteSpace=wrap;html=1;rounded=1;glass=0;strokeWidth=1;shadow=0;fillColor=#f5f5f5;strokeColor=#666666;fontColor=#333333;" parent="WIyWlLk6GJQsqaUBKTNV-1" vertex="1">
          <mxGeometry x="981" y="755" width="120" height="40" as="geometry" />
        </mxCell>
        <mxCell id="yXXLYNOuBSX8wuwPwn-O-243" value="" style="edgeStyle=orthogonalEdgeStyle;rounded=0;orthogonalLoop=1;jettySize=auto;html=1;" parent="WIyWlLk6GJQsqaUBKTNV-1" source="yXXLYNOuBSX8wuwPwn-O-183" target="yXXLYNOuBSX8wuwPwn-O-185" edge="1">
          <mxGeometry relative="1" as="geometry" />
        </mxCell>
        <mxCell id="yXXLYNOuBSX8wuwPwn-O-183" value="socket()" style="whiteSpace=wrap;html=1;rounded=1;glass=0;strokeWidth=1;shadow=0;" parent="WIyWlLk6GJQsqaUBKTNV-1" vertex="1">
          <mxGeometry x="308" y="-102" width="120" height="40" as="geometry" />
        </mxCell>
        <mxCell id="yXXLYNOuBSX8wuwPwn-O-188" value="" style="edgeStyle=orthogonalEdgeStyle;rounded=0;orthogonalLoop=1;jettySize=auto;html=1;" parent="WIyWlLk6GJQsqaUBKTNV-1" source="yXXLYNOuBSX8wuwPwn-O-185" target="yXXLYNOuBSX8wuwPwn-O-187" edge="1">
          <mxGeometry relative="1" as="geometry" />
        </mxCell>
        <mxCell id="yXXLYNOuBSX8wuwPwn-O-185" value="setsockopt()" style="whiteSpace=wrap;html=1;rounded=1;glass=0;strokeWidth=1;shadow=0;" parent="WIyWlLk6GJQsqaUBKTNV-1" vertex="1">
          <mxGeometry x="488" y="-102" width="120" height="40" as="geometry" />
        </mxCell>
        <mxCell id="yXXLYNOuBSX8wuwPwn-O-190" value="" style="edgeStyle=orthogonalEdgeStyle;rounded=0;orthogonalLoop=1;jettySize=auto;html=1;" parent="WIyWlLk6GJQsqaUBKTNV-1" source="yXXLYNOuBSX8wuwPwn-O-187" target="yXXLYNOuBSX8wuwPwn-O-189" edge="1">
          <mxGeometry relative="1" as="geometry" />
        </mxCell>
        <mxCell id="yXXLYNOuBSX8wuwPwn-O-187" value="bind()" style="whiteSpace=wrap;html=1;rounded=1;glass=0;strokeWidth=1;shadow=0;" parent="WIyWlLk6GJQsqaUBKTNV-1" vertex="1">
          <mxGeometry x="488" y="-20" width="120" height="40" as="geometry" />
        </mxCell>
        <mxCell id="yXXLYNOuBSX8wuwPwn-O-205" value="" style="edgeStyle=orthogonalEdgeStyle;rounded=0;orthogonalLoop=1;jettySize=auto;html=1;" parent="WIyWlLk6GJQsqaUBKTNV-1" source="yXXLYNOuBSX8wuwPwn-O-189" target="yXXLYNOuBSX8wuwPwn-O-204" edge="1">
          <mxGeometry relative="1" as="geometry" />
        </mxCell>
        <mxCell id="yXXLYNOuBSX8wuwPwn-O-189" value="listen()" style="whiteSpace=wrap;html=1;rounded=1;glass=0;strokeWidth=1;shadow=0;" parent="WIyWlLk6GJQsqaUBKTNV-1" vertex="1">
          <mxGeometry x="308" y="-20" width="120" height="40" as="geometry" />
        </mxCell>
        <mxCell id="yXXLYNOuBSX8wuwPwn-O-199" value="" style="edgeStyle=orthogonalEdgeStyle;rounded=0;orthogonalLoop=1;jettySize=auto;html=1;" parent="WIyWlLk6GJQsqaUBKTNV-1" source="yXXLYNOuBSX8wuwPwn-O-196" target="yXXLYNOuBSX8wuwPwn-O-198" edge="1">
          <mxGeometry relative="1" as="geometry" />
        </mxCell>
        <mxCell id="yXXLYNOuBSX8wuwPwn-O-196" value="epoll_create()" style="whiteSpace=wrap;html=1;rounded=1;glass=0;strokeWidth=1;shadow=0;fillColor=#fff2cc;strokeColor=#d6b656;" parent="WIyWlLk6GJQsqaUBKTNV-1" vertex="1">
          <mxGeometry x="308" y="80" width="120" height="40" as="geometry" />
        </mxCell>
        <mxCell id="yXXLYNOuBSX8wuwPwn-O-201" style="edgeStyle=orthogonalEdgeStyle;rounded=0;orthogonalLoop=1;jettySize=auto;html=1;entryX=0;entryY=0.5;entryDx=0;entryDy=0;" parent="WIyWlLk6GJQsqaUBKTNV-1" source="yXXLYNOuBSX8wuwPwn-O-198" target="yXXLYNOuBSX8wuwPwn-O-43" edge="1">
          <mxGeometry relative="1" as="geometry">
            <Array as="points">
              <mxPoint x="200" y="180" />
              <mxPoint x="200" y="395" />
            </Array>
          </mxGeometry>
        </mxCell>
        <mxCell id="yXXLYNOuBSX8wuwPwn-O-198" value="add listener to epoll" style="whiteSpace=wrap;html=1;rounded=1;glass=0;strokeWidth=1;shadow=0;" parent="WIyWlLk6GJQsqaUBKTNV-1" vertex="1">
          <mxGeometry x="308" y="160" width="120" height="40" as="geometry" />
        </mxCell>
        <mxCell id="yXXLYNOuBSX8wuwPwn-O-207" value="" style="edgeStyle=orthogonalEdgeStyle;rounded=0;orthogonalLoop=1;jettySize=auto;html=1;entryX=0;entryY=0.5;entryDx=0;entryDy=0;" parent="WIyWlLk6GJQsqaUBKTNV-1" source="yXXLYNOuBSX8wuwPwn-O-202" target="yXXLYNOuBSX8wuwPwn-O-208" edge="1">
          <mxGeometry relative="1" as="geometry">
            <mxPoint x="460" y="-289" as="targetPoint" />
          </mxGeometry>
        </mxCell>
        <mxCell id="yXXLYNOuBSX8wuwPwn-O-202" value="server block" style="whiteSpace=wrap;html=1;rounded=1;glass=0;strokeWidth=1;shadow=0;fillColor=#d5e8d4;strokeColor=#82b366;" parent="WIyWlLk6GJQsqaUBKTNV-1" vertex="1">
          <mxGeometry x="308" y="-309" width="120" height="40" as="geometry" />
        </mxCell>
        <mxCell id="yXXLYNOuBSX8wuwPwn-O-248" style="edgeStyle=orthogonalEdgeStyle;rounded=0;orthogonalLoop=1;jettySize=auto;html=1;entryX=0;entryY=0.5;entryDx=0;entryDy=0;" parent="WIyWlLk6GJQsqaUBKTNV-1" source="yXXLYNOuBSX8wuwPwn-O-204" target="yXXLYNOuBSX8wuwPwn-O-233" edge="1">
          <mxGeometry relative="1" as="geometry">
            <Array as="points">
              <mxPoint x="213" y="-230" />
            </Array>
          </mxGeometry>
        </mxCell>
        <mxCell id="yXXLYNOuBSX8wuwPwn-O-204" value="add to fd_list" style="whiteSpace=wrap;html=1;rounded=1;glass=0;strokeWidth=1;shadow=0;" parent="WIyWlLk6GJQsqaUBKTNV-1" vertex="1">
          <mxGeometry x="153" y="-102" width="120" height="40" as="geometry" />
        </mxCell>
        <mxCell id="yXXLYNOuBSX8wuwPwn-O-213" value="" style="edgeStyle=orthogonalEdgeStyle;rounded=0;orthogonalLoop=1;jettySize=auto;html=1;" parent="WIyWlLk6GJQsqaUBKTNV-1" source="yXXLYNOuBSX8wuwPwn-O-208" target="yXXLYNOuBSX8wuwPwn-O-212" edge="1">
          <mxGeometry relative="1" as="geometry" />
        </mxCell>
        <mxCell id="yXXLYNOuBSX8wuwPwn-O-220" value="duplicated" style="edgeLabel;html=1;align=center;verticalAlign=middle;resizable=0;points=[];" parent="yXXLYNOuBSX8wuwPwn-O-213" vertex="1" connectable="0">
          <mxGeometry x="-0.0558" y="-1" relative="1" as="geometry">
            <mxPoint x="-3" y="-1" as="offset" />
          </mxGeometry>
        </mxCell>
        <mxCell id="yXXLYNOuBSX8wuwPwn-O-215" value="" style="edgeStyle=orthogonalEdgeStyle;rounded=0;orthogonalLoop=1;jettySize=auto;html=1;" parent="WIyWlLk6GJQsqaUBKTNV-1" source="yXXLYNOuBSX8wuwPwn-O-208" target="yXXLYNOuBSX8wuwPwn-O-214" edge="1">
          <mxGeometry relative="1" as="geometry" />
        </mxCell>
        <mxCell id="yXXLYNOuBSX8wuwPwn-O-218" value="unique" style="edgeLabel;html=1;align=center;verticalAlign=middle;resizable=0;points=[];" parent="yXXLYNOuBSX8wuwPwn-O-215" vertex="1" connectable="0">
          <mxGeometry x="-0.1339" y="1" relative="1" as="geometry">
            <mxPoint as="offset" />
          </mxGeometry>
        </mxCell>
        <mxCell id="yXXLYNOuBSX8wuwPwn-O-208" value="check port" style="rhombus;whiteSpace=wrap;html=1;rounded=1;glass=0;strokeWidth=1;shadow=0;fillColor=#6a00ff;fontColor=#ffffff;strokeColor=#3700CC;" parent="WIyWlLk6GJQsqaUBKTNV-1" vertex="1">
          <mxGeometry x="680" y="-314" width="120" height="50" as="geometry" />
        </mxCell>
        <mxCell id="yXXLYNOuBSX8wuwPwn-O-244" style="edgeStyle=orthogonalEdgeStyle;rounded=0;orthogonalLoop=1;jettySize=auto;html=1;entryX=1;entryY=0.5;entryDx=0;entryDy=0;" parent="WIyWlLk6GJQsqaUBKTNV-1" source="yXXLYNOuBSX8wuwPwn-O-212" target="yXXLYNOuBSX8wuwPwn-O-214" edge="1">
          <mxGeometry relative="1" as="geometry">
            <Array as="points">
              <mxPoint x="940" y="-162" />
            </Array>
          </mxGeometry>
        </mxCell>
        <mxCell id="yXXLYNOuBSX8wuwPwn-O-212" value="set duplicated" style="whiteSpace=wrap;html=1;rounded=1;glass=0;strokeWidth=1;shadow=0;" parent="WIyWlLk6GJQsqaUBKTNV-1" vertex="1">
          <mxGeometry x="880" y="-309" width="120" height="40" as="geometry" />
        </mxCell>
        <mxCell id="yXXLYNOuBSX8wuwPwn-O-241" value="" style="edgeStyle=orthogonalEdgeStyle;rounded=0;orthogonalLoop=1;jettySize=auto;html=1;" parent="WIyWlLk6GJQsqaUBKTNV-1" source="yXXLYNOuBSX8wuwPwn-O-214" target="yXXLYNOuBSX8wuwPwn-O-239" edge="1">
          <mxGeometry relative="1" as="geometry" />
        </mxCell>
        <mxCell id="yXXLYNOuBSX8wuwPwn-O-214" value="create_server()" style="whiteSpace=wrap;html=1;rounded=1;glass=0;strokeWidth=1;shadow=0;fillColor=#e1d5e7;strokeColor=#9673a6;" parent="WIyWlLk6GJQsqaUBKTNV-1" vertex="1">
          <mxGeometry x="680" y="-182" width="120" height="40" as="geometry" />
        </mxCell>
        <mxCell id="yXXLYNOuBSX8wuwPwn-O-229" value="" style="edgeStyle=orthogonalEdgeStyle;rounded=0;orthogonalLoop=1;jettySize=auto;html=1;" parent="WIyWlLk6GJQsqaUBKTNV-1" source="yXXLYNOuBSX8wuwPwn-O-225" target="yXXLYNOuBSX8wuwPwn-O-183" edge="1">
          <mxGeometry relative="1" as="geometry" />
        </mxCell>
        <mxCell id="yXXLYNOuBSX8wuwPwn-O-237" value="no" style="edgeLabel;html=1;align=center;verticalAlign=middle;resizable=0;points=[];" parent="yXXLYNOuBSX8wuwPwn-O-229" vertex="1" connectable="0">
          <mxGeometry x="-0.0873" y="-1" relative="1" as="geometry">
            <mxPoint x="-1" y="-4" as="offset" />
          </mxGeometry>
        </mxCell>
        <mxCell id="yXXLYNOuBSX8wuwPwn-O-235" value="" style="edgeStyle=orthogonalEdgeStyle;rounded=0;orthogonalLoop=1;jettySize=auto;html=1;" parent="WIyWlLk6GJQsqaUBKTNV-1" source="yXXLYNOuBSX8wuwPwn-O-225" target="yXXLYNOuBSX8wuwPwn-O-233" edge="1">
          <mxGeometry relative="1" as="geometry" />
        </mxCell>
        <mxCell id="yXXLYNOuBSX8wuwPwn-O-238" value="yes" style="edgeLabel;html=1;align=center;verticalAlign=middle;resizable=0;points=[];" parent="yXXLYNOuBSX8wuwPwn-O-235" vertex="1" connectable="0">
          <mxGeometry x="-0.6259" y="2" relative="1" as="geometry">
            <mxPoint x="2" y="-3" as="offset" />
          </mxGeometry>
        </mxCell>
        <mxCell id="yXXLYNOuBSX8wuwPwn-O-225" value="isDuplicated" style="rhombus;whiteSpace=wrap;html=1;rounded=1;glass=0;strokeWidth=1;shadow=0;fillColor=#6a00ff;fontColor=#ffffff;strokeColor=#3700CC;" parent="WIyWlLk6GJQsqaUBKTNV-1" vertex="1">
          <mxGeometry x="308" y="-187" width="120" height="50" as="geometry" />
        </mxCell>
        <mxCell id="yXXLYNOuBSX8wuwPwn-O-234" value="" style="edgeStyle=orthogonalEdgeStyle;rounded=0;orthogonalLoop=1;jettySize=auto;html=1;" parent="WIyWlLk6GJQsqaUBKTNV-1" source="yXXLYNOuBSX8wuwPwn-O-233" target="yXXLYNOuBSX8wuwPwn-O-202" edge="1">
          <mxGeometry relative="1" as="geometry" />
        </mxCell>
        <mxCell id="yXXLYNOuBSX8wuwPwn-O-233" value="" style="ellipse;whiteSpace=wrap;html=1;rounded=1;glass=0;strokeWidth=1;shadow=0;" parent="WIyWlLk6GJQsqaUBKTNV-1" vertex="1">
          <mxGeometry x="358" y="-240" width="20" height="20" as="geometry" />
        </mxCell>
        <mxCell id="yXXLYNOuBSX8wuwPwn-O-242" value="" style="edgeStyle=orthogonalEdgeStyle;rounded=0;orthogonalLoop=1;jettySize=auto;html=1;" parent="WIyWlLk6GJQsqaUBKTNV-1" source="yXXLYNOuBSX8wuwPwn-O-239" target="yXXLYNOuBSX8wuwPwn-O-225" edge="1">
          <mxGeometry relative="1" as="geometry" />
        </mxCell>
        <mxCell id="yXXLYNOuBSX8wuwPwn-O-239" value="add to server_list" style="whiteSpace=wrap;html=1;rounded=1;glass=0;strokeWidth=1;shadow=0;" parent="WIyWlLk6GJQsqaUBKTNV-1" vertex="1">
          <mxGeometry x="488" y="-182" width="120" height="40" as="geometry" />
        </mxCell>
        <mxCell id="yXXLYNOuBSX8wuwPwn-O-258" value="Server" style="swimlane;fontStyle=0;childLayout=stackLayout;horizontal=1;startSize=26;fillColor=none;horizontalStack=0;resizeParent=1;resizeParentMax=0;resizeLast=0;collapsible=1;marginBottom=0;html=1;" parent="WIyWlLk6GJQsqaUBKTNV-1" vertex="1">
          <mxGeometry x="1360" y="-160" width="220" height="250" as="geometry" />
        </mxCell>
        <mxCell id="yXXLYNOuBSX8wuwPwn-O-261" value="int&lt;span style=&quot;white-space: pre;&quot;&gt;&#x9;&lt;/span&gt;&lt;span style=&quot;white-space: pre;&quot;&gt;&#x9;&lt;/span&gt;&lt;span style=&quot;white-space: pre;&quot;&gt;&#x9;&lt;/span&gt;_listener;" style="text;strokeColor=none;fillColor=none;align=left;verticalAlign=top;spacingLeft=4;spacingRight=4;overflow=hidden;rotatable=0;points=[[0,0.5],[1,0.5]];portConstraint=eastwest;whiteSpace=wrap;html=1;" parent="yXXLYNOuBSX8wuwPwn-O-258" vertex="1">
          <mxGeometry y="26" width="220" height="26" as="geometry" />
        </mxCell>
        <mxCell id="yXXLYNOuBSX8wuwPwn-O-259" value="std::string&lt;span style=&quot;white-space: pre;&quot;&gt;&#x9;&lt;/span&gt;_serverName;" style="text;strokeColor=none;fillColor=none;align=left;verticalAlign=top;spacingLeft=4;spacingRight=4;overflow=hidden;rotatable=0;points=[[0,0.5],[1,0.5]];portConstraint=eastwest;whiteSpace=wrap;html=1;" parent="yXXLYNOuBSX8wuwPwn-O-258" vertex="1">
          <mxGeometry y="52" width="220" height="26" as="geometry" />
        </mxCell>
        <mxCell id="yXXLYNOuBSX8wuwPwn-O-260" value="int&lt;span style=&quot;white-space: pre;&quot;&gt;&#x9;&lt;/span&gt;&lt;span style=&quot;white-space: pre;&quot;&gt;&#x9;&lt;/span&gt;&lt;span style=&quot;white-space: pre;&quot;&gt;&#x9;&lt;/span&gt;_port;" style="text;strokeColor=none;fillColor=none;align=left;verticalAlign=top;spacingLeft=4;spacingRight=4;overflow=hidden;rotatable=0;points=[[0,0.5],[1,0.5]];portConstraint=eastwest;whiteSpace=wrap;html=1;" parent="yXXLYNOuBSX8wuwPwn-O-258" vertex="1">
          <mxGeometry y="78" width="220" height="26" as="geometry" />
        </mxCell>
        <mxCell id="yXXLYNOuBSX8wuwPwn-O-262" value="std::string&lt;span style=&quot;white-space: pre;&quot;&gt;&#x9;&lt;/span&gt;_defaultErrorPage;" style="text;strokeColor=none;fillColor=none;align=left;verticalAlign=top;spacingLeft=4;spacingRight=4;overflow=hidden;rotatable=0;points=[[0,0.5],[1,0.5]];portConstraint=eastwest;whiteSpace=wrap;html=1;" parent="yXXLYNOuBSX8wuwPwn-O-258" vertex="1">
          <mxGeometry y="104" width="220" height="26" as="geometry" />
        </mxCell>
        <mxCell id="yXXLYNOuBSX8wuwPwn-O-263" value="int&lt;span style=&quot;white-space: pre;&quot;&gt;&#x9;&lt;/span&gt;&lt;span style=&quot;white-space: pre;&quot;&gt;&#x9;&lt;/span&gt;&lt;span style=&quot;white-space: pre;&quot;&gt;&#x9;&lt;/span&gt;_maxClientBodySize;" style="text;strokeColor=none;fillColor=none;align=left;verticalAlign=top;spacingLeft=4;spacingRight=4;overflow=hidden;rotatable=0;points=[[0,0.5],[1,0.5]];portConstraint=eastwest;whiteSpace=wrap;html=1;" parent="yXXLYNOuBSX8wuwPwn-O-258" vertex="1">
          <mxGeometry y="130" width="220" height="26" as="geometry" />
        </mxCell>
        <mxCell id="yXXLYNOuBSX8wuwPwn-O-264" value="std::string&lt;span style=&quot;white-space: pre;&quot;&gt;&#x9;&lt;/span&gt;_root;" style="text;strokeColor=none;fillColor=none;align=left;verticalAlign=top;spacingLeft=4;spacingRight=4;overflow=hidden;rotatable=0;points=[[0,0.5],[1,0.5]];portConstraint=eastwest;whiteSpace=wrap;html=1;" parent="yXXLYNOuBSX8wuwPwn-O-258" vertex="1">
          <mxGeometry y="156" width="220" height="26" as="geometry" />
        </mxCell>
        <mxCell id="yXXLYNOuBSX8wuwPwn-O-265" value="std::string&lt;span style=&quot;white-space: pre;&quot;&gt;&#x9;&lt;/span&gt;_allowedMethod;" style="text;strokeColor=none;fillColor=none;align=left;verticalAlign=top;spacingLeft=4;spacingRight=4;overflow=hidden;rotatable=0;points=[[0,0.5],[1,0.5]];portConstraint=eastwest;whiteSpace=wrap;html=1;" parent="yXXLYNOuBSX8wuwPwn-O-258" vertex="1">
          <mxGeometry y="182" width="220" height="26" as="geometry" />
        </mxCell>
        <mxCell id="yXXLYNOuBSX8wuwPwn-O-266" value="std::map&amp;lt;std::string, std::string&amp;gt;&lt;br&gt;&lt;span style=&quot;white-space: pre;&quot;&gt;&#x9;&lt;/span&gt;&lt;span style=&quot;white-space: pre;&quot;&gt;&#x9;&lt;/span&gt;&lt;span style=&quot;white-space: pre;&quot;&gt;&#x9;&lt;/span&gt;_location;" style="text;strokeColor=none;fillColor=none;align=left;verticalAlign=top;spacingLeft=4;spacingRight=4;overflow=hidden;rotatable=0;points=[[0,0.5],[1,0.5]];portConstraint=eastwest;whiteSpace=wrap;html=1;" parent="yXXLYNOuBSX8wuwPwn-O-258" vertex="1">
          <mxGeometry y="208" width="220" height="42" as="geometry" />
        </mxCell>
        <mxCell id="yXXLYNOuBSX8wuwPwn-O-268" value="Webserv" style="swimlane;fontStyle=0;childLayout=stackLayout;horizontal=1;startSize=26;fillColor=none;horizontalStack=0;resizeParent=1;resizeParentMax=0;resizeLast=0;collapsible=1;marginBottom=0;html=1;" parent="WIyWlLk6GJQsqaUBKTNV-1" vertex="1">
          <mxGeometry x="1040" y="-160" width="220" height="78" as="geometry" />
        </mxCell>
        <mxCell id="yXXLYNOuBSX8wuwPwn-O-269" value="std::vector&amp;lt;int&amp;gt;&lt;span style=&quot;white-space: pre;&quot;&gt;&#x9;&lt;span style=&quot;white-space: pre;&quot;&gt;&#x9;&lt;/span&gt;&lt;/span&gt;_fd;" style="text;strokeColor=none;fillColor=none;align=left;verticalAlign=top;spacingLeft=4;spacingRight=4;overflow=hidden;rotatable=0;points=[[0,0.5],[1,0.5]];portConstraint=eastwest;whiteSpace=wrap;html=1;" parent="yXXLYNOuBSX8wuwPwn-O-268" vertex="1">
          <mxGeometry y="26" width="220" height="26" as="geometry" />
        </mxCell>
        <mxCell id="yXXLYNOuBSX8wuwPwn-O-270" value="std::vector&amp;lt;Server&amp;gt;&lt;span style=&quot;white-space: pre;&quot;&gt;&#x9;&lt;span style=&quot;white-space: pre;&quot;&gt;&#x9;&lt;/span&gt;&lt;/span&gt;_server;" style="text;strokeColor=none;fillColor=none;align=left;verticalAlign=top;spacingLeft=4;spacingRight=4;overflow=hidden;rotatable=0;points=[[0,0.5],[1,0.5]];portConstraint=eastwest;whiteSpace=wrap;html=1;" parent="yXXLYNOuBSX8wuwPwn-O-268" vertex="1">
          <mxGeometry y="52" width="220" height="26" as="geometry" />
        </mxCell>
        <mxCell id="yXXLYNOuBSX8wuwPwn-O-277" style="edgeStyle=orthogonalEdgeStyle;rounded=0;orthogonalLoop=1;jettySize=auto;html=1;entryX=0.007;entryY=0.061;entryDx=0;entryDy=0;entryPerimeter=0;" parent="WIyWlLk6GJQsqaUBKTNV-1" source="yXXLYNOuBSX8wuwPwn-O-270" target="yXXLYNOuBSX8wuwPwn-O-258" edge="1">
          <mxGeometry relative="1" as="geometry" />
        </mxCell>
        <mxCell id="yXXLYNOuBSX8wuwPwn-O-288" value="Location block:&lt;br&gt;&lt;span style=&quot;white-space: pre;&quot;&gt;&#x9;&lt;/span&gt;{ path : allowedMethod:;return:;root:;directoryListing:;index:; }" style="text;html=1;strokeColor=none;fillColor=none;align=left;verticalAlign=middle;whiteSpace=wrap;rounded=0;" parent="WIyWlLk6GJQsqaUBKTNV-1" vertex="1">
          <mxGeometry x="1360" y="120" width="410" height="30" as="geometry" />
        </mxCell>
        <mxCell id="YRQwu3OQHLb-Ya9GeAHd-0" value="HttpHandler" style="swimlane;fontStyle=0;childLayout=stackLayout;horizontal=1;startSize=26;fillColor=none;horizontalStack=0;resizeParent=1;resizeParentMax=0;resizeLast=0;collapsible=1;marginBottom=0;html=1;" vertex="1" parent="WIyWlLk6GJQsqaUBKTNV-1">
          <mxGeometry x="1760" y="-170" width="220" height="390" as="geometry" />
        </mxCell>
        <mxCell id="YRQwu3OQHLb-Ya9GeAHd-1" value="int&lt;span style=&quot;white-space: pre;&quot;&gt;&#x9;&lt;/span&gt;&lt;span style=&quot;white-space: pre;&quot;&gt;&#x9;&lt;/span&gt;&lt;span style=&quot;white-space: pre;&quot;&gt;&#x9;&lt;/span&gt;_fd;" style="text;strokeColor=none;fillColor=none;align=left;verticalAlign=top;spacingLeft=4;spacingRight=4;overflow=hidden;rotatable=0;points=[[0,0.5],[1,0.5]];portConstraint=eastwest;whiteSpace=wrap;html=1;" vertex="1" parent="YRQwu3OQHLb-Ya9GeAHd-0">
          <mxGeometry y="26" width="220" height="26" as="geometry" />
        </mxCell>
        <mxCell id="YRQwu3OQHLb-Ya9GeAHd-9" value="int&lt;span style=&quot;white-space: pre;&quot;&gt;&#x9;&lt;/span&gt;&lt;span style=&quot;white-space: pre;&quot;&gt;&#x9;&lt;/span&gt;&lt;span style=&quot;white-space: pre;&quot;&gt;&#x9;&lt;/span&gt;_status;" style="text;strokeColor=none;fillColor=none;align=left;verticalAlign=top;spacingLeft=4;spacingRight=4;overflow=hidden;rotatable=0;points=[[0,0.5],[1,0.5]];portConstraint=eastwest;whiteSpace=wrap;html=1;" vertex="1" parent="YRQwu3OQHLb-Ya9GeAHd-0">
          <mxGeometry y="52" width="220" height="26" as="geometry" />
        </mxCell>
        <mxCell id="YRQwu3OQHLb-Ya9GeAHd-3" value="std::string&lt;span style=&quot;white-space: pre;&quot;&gt;&#x9;&lt;/span&gt;_request;&lt;br&gt;" style="text;strokeColor=none;fillColor=none;align=left;verticalAlign=top;spacingLeft=4;spacingRight=4;overflow=hidden;rotatable=0;points=[[0,0.5],[1,0.5]];portConstraint=eastwest;whiteSpace=wrap;html=1;" vertex="1" parent="YRQwu3OQHLb-Ya9GeAHd-0">
          <mxGeometry y="78" width="220" height="26" as="geometry" />
        </mxCell>
        <mxCell id="YRQwu3OQHLb-Ya9GeAHd-10" value="std::string&lt;span style=&quot;white-space: pre;&quot;&gt;&#x9;&lt;/span&gt;_method;" style="text;strokeColor=none;fillColor=none;align=left;verticalAlign=top;spacingLeft=4;spacingRight=4;overflow=hidden;rotatable=0;points=[[0,0.5],[1,0.5]];portConstraint=eastwest;whiteSpace=wrap;html=1;" vertex="1" parent="YRQwu3OQHLb-Ya9GeAHd-0">
          <mxGeometry y="104" width="220" height="26" as="geometry" />
        </mxCell>
        <mxCell id="YRQwu3OQHLb-Ya9GeAHd-11" value="std::string&lt;span style=&quot;white-space: pre;&quot;&gt;&#x9;&lt;/span&gt;_uri;" style="text;strokeColor=none;fillColor=none;align=left;verticalAlign=top;spacingLeft=4;spacingRight=4;overflow=hidden;rotatable=0;points=[[0,0.5],[1,0.5]];portConstraint=eastwest;whiteSpace=wrap;html=1;" vertex="1" parent="YRQwu3OQHLb-Ya9GeAHd-0">
          <mxGeometry y="130" width="220" height="26" as="geometry" />
        </mxCell>
        <mxCell id="YRQwu3OQHLb-Ya9GeAHd-12" value="std::string&lt;span style=&quot;white-space: pre;&quot;&gt;&#x9;&lt;/span&gt;_version;" style="text;strokeColor=none;fillColor=none;align=left;verticalAlign=top;spacingLeft=4;spacingRight=4;overflow=hidden;rotatable=0;points=[[0,0.5],[1,0.5]];portConstraint=eastwest;whiteSpace=wrap;html=1;" vertex="1" parent="YRQwu3OQHLb-Ya9GeAHd-0">
          <mxGeometry y="156" width="220" height="26" as="geometry" />
        </mxCell>
        <mxCell id="YRQwu3OQHLb-Ya9GeAHd-13" value="std::string&lt;span style=&quot;white-space: pre;&quot;&gt;&#x9;&lt;/span&gt;_host;" style="text;strokeColor=none;fillColor=none;align=left;verticalAlign=top;spacingLeft=4;spacingRight=4;overflow=hidden;rotatable=0;points=[[0,0.5],[1,0.5]];portConstraint=eastwest;whiteSpace=wrap;html=1;" vertex="1" parent="YRQwu3OQHLb-Ya9GeAHd-0">
          <mxGeometry y="182" width="220" height="26" as="geometry" />
        </mxCell>
        <mxCell id="YRQwu3OQHLb-Ya9GeAHd-15" value="std::string&lt;span style=&quot;white-space: pre;&quot;&gt;&#x9;&lt;/span&gt;_connection;" style="text;strokeColor=none;fillColor=none;align=left;verticalAlign=top;spacingLeft=4;spacingRight=4;overflow=hidden;rotatable=0;points=[[0,0.5],[1,0.5]];portConstraint=eastwest;whiteSpace=wrap;html=1;" vertex="1" parent="YRQwu3OQHLb-Ya9GeAHd-0">
          <mxGeometry y="208" width="220" height="26" as="geometry" />
        </mxCell>
        <mxCell id="YRQwu3OQHLb-Ya9GeAHd-14" value="std::string&lt;span style=&quot;white-space: pre;&quot;&gt;&#x9;&lt;/span&gt;_body;" style="text;strokeColor=none;fillColor=none;align=left;verticalAlign=top;spacingLeft=4;spacingRight=4;overflow=hidden;rotatable=0;points=[[0,0.5],[1,0.5]];portConstraint=eastwest;whiteSpace=wrap;html=1;" vertex="1" parent="YRQwu3OQHLb-Ya9GeAHd-0">
          <mxGeometry y="234" width="220" height="26" as="geometry" />
        </mxCell>
        <mxCell id="YRQwu3OQHLb-Ya9GeAHd-19" value="Server&lt;span style=&quot;white-space: pre;&quot;&gt;&#x9;&lt;/span&gt;&lt;span style=&quot;white-space: pre;&quot;&gt;&#x9;&lt;/span&gt;_server;" style="text;strokeColor=none;fillColor=none;align=left;verticalAlign=top;spacingLeft=4;spacingRight=4;overflow=hidden;rotatable=0;points=[[0,0.5],[1,0.5]];portConstraint=eastwest;whiteSpace=wrap;html=1;" vertex="1" parent="YRQwu3OQHLb-Ya9GeAHd-0">
          <mxGeometry y="260" width="220" height="26" as="geometry" />
        </mxCell>
        <mxCell id="YRQwu3OQHLb-Ya9GeAHd-20" value="std::string&lt;span style=&quot;white-space: pre;&quot;&gt;&#x9;&lt;/span&gt;_location;" style="text;strokeColor=none;fillColor=none;align=left;verticalAlign=top;spacingLeft=4;spacingRight=4;overflow=hidden;rotatable=0;points=[[0,0.5],[1,0.5]];portConstraint=eastwest;whiteSpace=wrap;html=1;" vertex="1" parent="YRQwu3OQHLb-Ya9GeAHd-0">
          <mxGeometry y="286" width="220" height="26" as="geometry" />
        </mxCell>
        <mxCell id="YRQwu3OQHLb-Ya9GeAHd-16" value="std::string&lt;span style=&quot;white-space: pre;&quot;&gt;&#x9;&lt;/span&gt;_response;" style="text;strokeColor=none;fillColor=none;align=left;verticalAlign=top;spacingLeft=4;spacingRight=4;overflow=hidden;rotatable=0;points=[[0,0.5],[1,0.5]];portConstraint=eastwest;whiteSpace=wrap;html=1;" vertex="1" parent="YRQwu3OQHLb-Ya9GeAHd-0">
          <mxGeometry y="312" width="220" height="26" as="geometry" />
        </mxCell>
        <mxCell id="YRQwu3OQHLb-Ya9GeAHd-18" value="std::string&lt;span style=&quot;white-space: pre;&quot;&gt;&#x9;&lt;/span&gt;_root;" style="text;strokeColor=none;fillColor=none;align=left;verticalAlign=top;spacingLeft=4;spacingRight=4;overflow=hidden;rotatable=0;points=[[0,0.5],[1,0.5]];portConstraint=eastwest;whiteSpace=wrap;html=1;" vertex="1" parent="YRQwu3OQHLb-Ya9GeAHd-0">
          <mxGeometry y="338" width="220" height="26" as="geometry" />
        </mxCell>
        <mxCell id="YRQwu3OQHLb-Ya9GeAHd-17" value="std::string&lt;span style=&quot;white-space: pre;&quot;&gt;&#x9;&lt;/span&gt;_fileName;" style="text;strokeColor=none;fillColor=none;align=left;verticalAlign=top;spacingLeft=4;spacingRight=4;overflow=hidden;rotatable=0;points=[[0,0.5],[1,0.5]];portConstraint=eastwest;whiteSpace=wrap;html=1;" vertex="1" parent="YRQwu3OQHLb-Ya9GeAHd-0">
          <mxGeometry y="364" width="220" height="26" as="geometry" />
        </mxCell>
        <mxCell id="YRQwu3OQHLb-Ya9GeAHd-24" value="" style="edgeStyle=orthogonalEdgeStyle;rounded=0;orthogonalLoop=1;jettySize=auto;html=1;" edge="1" parent="WIyWlLk6GJQsqaUBKTNV-1" source="YRQwu3OQHLb-Ya9GeAHd-21" target="YRQwu3OQHLb-Ya9GeAHd-23">
          <mxGeometry relative="1" as="geometry" />
        </mxCell>
        <mxCell id="YRQwu3OQHLb-Ya9GeAHd-21" value="find server_block" style="whiteSpace=wrap;html=1;rounded=1;glass=0;strokeWidth=1;shadow=0;fillColor=#fff2cc;strokeColor=#d6b656;" vertex="1" parent="WIyWlLk6GJQsqaUBKTNV-1">
          <mxGeometry x="1200" y="375" width="120" height="40" as="geometry" />
        </mxCell>
        <mxCell id="YRQwu3OQHLb-Ya9GeAHd-32" value="" style="edgeStyle=orthogonalEdgeStyle;rounded=0;orthogonalLoop=1;jettySize=auto;html=1;" edge="1" parent="WIyWlLk6GJQsqaUBKTNV-1" source="YRQwu3OQHLb-Ya9GeAHd-23" target="YRQwu3OQHLb-Ya9GeAHd-31">
          <mxGeometry relative="1" as="geometry" />
        </mxCell>
        <mxCell id="YRQwu3OQHLb-Ya9GeAHd-33" value="No" style="edgeLabel;html=1;align=center;verticalAlign=middle;resizable=0;points=[];" vertex="1" connectable="0" parent="YRQwu3OQHLb-Ya9GeAHd-32">
          <mxGeometry x="-0.3496" y="-2" relative="1" as="geometry">
            <mxPoint x="2" y="2" as="offset" />
          </mxGeometry>
        </mxCell>
        <mxCell id="YRQwu3OQHLb-Ya9GeAHd-35" value="" style="edgeStyle=orthogonalEdgeStyle;rounded=0;orthogonalLoop=1;jettySize=auto;html=1;" edge="1" parent="WIyWlLk6GJQsqaUBKTNV-1" source="YRQwu3OQHLb-Ya9GeAHd-23" target="YRQwu3OQHLb-Ya9GeAHd-34">
          <mxGeometry relative="1" as="geometry" />
        </mxCell>
        <mxCell id="YRQwu3OQHLb-Ya9GeAHd-60" value="Yes" style="edgeLabel;html=1;align=center;verticalAlign=middle;resizable=0;points=[];" vertex="1" connectable="0" parent="YRQwu3OQHLb-Ya9GeAHd-35">
          <mxGeometry x="-0.2387" y="1" relative="1" as="geometry">
            <mxPoint as="offset" />
          </mxGeometry>
        </mxCell>
        <mxCell id="YRQwu3OQHLb-Ya9GeAHd-23" value="match host" style="rhombus;whiteSpace=wrap;html=1;rounded=1;glass=0;strokeWidth=1;shadow=0;" vertex="1" parent="WIyWlLk6GJQsqaUBKTNV-1">
          <mxGeometry x="1370" y="370" width="120" height="50" as="geometry" />
        </mxCell>
        <mxCell id="YRQwu3OQHLb-Ya9GeAHd-39" value="" style="edgeStyle=orthogonalEdgeStyle;rounded=0;orthogonalLoop=1;jettySize=auto;html=1;" edge="1" parent="WIyWlLk6GJQsqaUBKTNV-1" source="YRQwu3OQHLb-Ya9GeAHd-28" target="YRQwu3OQHLb-Ya9GeAHd-38">
          <mxGeometry relative="1" as="geometry" />
        </mxCell>
        <mxCell id="YRQwu3OQHLb-Ya9GeAHd-40" value="No" style="edgeLabel;html=1;align=center;verticalAlign=middle;resizable=0;points=[];" vertex="1" connectable="0" parent="YRQwu3OQHLb-Ya9GeAHd-39">
          <mxGeometry x="-0.3244" y="1" relative="1" as="geometry">
            <mxPoint as="offset" />
          </mxGeometry>
        </mxCell>
        <mxCell id="YRQwu3OQHLb-Ya9GeAHd-42" value="" style="edgeStyle=orthogonalEdgeStyle;rounded=0;orthogonalLoop=1;jettySize=auto;html=1;" edge="1" parent="WIyWlLk6GJQsqaUBKTNV-1" source="YRQwu3OQHLb-Ya9GeAHd-28" target="YRQwu3OQHLb-Ya9GeAHd-41">
          <mxGeometry relative="1" as="geometry" />
        </mxCell>
        <mxCell id="YRQwu3OQHLb-Ya9GeAHd-43" value="Yes" style="edgeLabel;html=1;align=center;verticalAlign=middle;resizable=0;points=[];" vertex="1" connectable="0" parent="YRQwu3OQHLb-Ya9GeAHd-42">
          <mxGeometry x="-0.1194" relative="1" as="geometry">
            <mxPoint x="1" y="-1" as="offset" />
          </mxGeometry>
        </mxCell>
        <mxCell id="YRQwu3OQHLb-Ya9GeAHd-28" value="match location" style="rhombus;whiteSpace=wrap;html=1;rounded=1;glass=0;strokeWidth=1;shadow=0;" vertex="1" parent="WIyWlLk6GJQsqaUBKTNV-1">
          <mxGeometry x="1600" y="370" width="120" height="50" as="geometry" />
        </mxCell>
        <mxCell id="YRQwu3OQHLb-Ya9GeAHd-36" style="edgeStyle=orthogonalEdgeStyle;rounded=0;orthogonalLoop=1;jettySize=auto;html=1;entryX=0.5;entryY=1;entryDx=0;entryDy=0;" edge="1" parent="WIyWlLk6GJQsqaUBKTNV-1" source="YRQwu3OQHLb-Ya9GeAHd-31" target="YRQwu3OQHLb-Ya9GeAHd-34">
          <mxGeometry relative="1" as="geometry" />
        </mxCell>
        <mxCell id="YRQwu3OQHLb-Ya9GeAHd-31" value="use Default server" style="whiteSpace=wrap;html=1;rounded=1;glass=0;strokeWidth=1;shadow=0;" vertex="1" parent="WIyWlLk6GJQsqaUBKTNV-1">
          <mxGeometry x="1370" y="470" width="120" height="35" as="geometry" />
        </mxCell>
        <mxCell id="YRQwu3OQHLb-Ya9GeAHd-37" value="" style="edgeStyle=orthogonalEdgeStyle;rounded=0;orthogonalLoop=1;jettySize=auto;html=1;" edge="1" parent="WIyWlLk6GJQsqaUBKTNV-1" source="YRQwu3OQHLb-Ya9GeAHd-34" target="YRQwu3OQHLb-Ya9GeAHd-28">
          <mxGeometry relative="1" as="geometry" />
        </mxCell>
        <mxCell id="YRQwu3OQHLb-Ya9GeAHd-34" value="" style="ellipse;whiteSpace=wrap;html=1;rounded=1;glass=0;strokeWidth=1;shadow=0;" vertex="1" parent="WIyWlLk6GJQsqaUBKTNV-1">
          <mxGeometry x="1531" y="385" width="20" height="20" as="geometry" />
        </mxCell>
        <mxCell id="YRQwu3OQHLb-Ya9GeAHd-45" style="edgeStyle=orthogonalEdgeStyle;rounded=0;orthogonalLoop=1;jettySize=auto;html=1;entryX=1;entryY=0.5;entryDx=0;entryDy=0;exitX=0.5;exitY=1;exitDx=0;exitDy=0;" edge="1" parent="WIyWlLk6GJQsqaUBKTNV-1" source="YRQwu3OQHLb-Ya9GeAHd-38" target="YRQwu3OQHLb-Ya9GeAHd-41">
          <mxGeometry relative="1" as="geometry">
            <Array as="points">
              <mxPoint x="1840" y="488" />
            </Array>
          </mxGeometry>
        </mxCell>
        <mxCell id="YRQwu3OQHLb-Ya9GeAHd-38" value="use &quot;/&quot;" style="whiteSpace=wrap;html=1;rounded=1;glass=0;strokeWidth=1;shadow=0;" vertex="1" parent="WIyWlLk6GJQsqaUBKTNV-1">
          <mxGeometry x="1780" y="377.5" width="120" height="35" as="geometry" />
        </mxCell>
        <mxCell id="YRQwu3OQHLb-Ya9GeAHd-49" value="" style="edgeStyle=orthogonalEdgeStyle;rounded=0;orthogonalLoop=1;jettySize=auto;html=1;" edge="1" parent="WIyWlLk6GJQsqaUBKTNV-1" source="YRQwu3OQHLb-Ya9GeAHd-41" target="YRQwu3OQHLb-Ya9GeAHd-48">
          <mxGeometry relative="1" as="geometry" />
        </mxCell>
        <mxCell id="YRQwu3OQHLb-Ya9GeAHd-41" value="set httphandler._location" style="whiteSpace=wrap;html=1;rounded=1;glass=0;strokeWidth=1;shadow=0;" vertex="1" parent="WIyWlLk6GJQsqaUBKTNV-1">
          <mxGeometry x="1600" y="470" width="120" height="35" as="geometry" />
        </mxCell>
        <mxCell id="YRQwu3OQHLb-Ya9GeAHd-51" value="" style="edgeStyle=orthogonalEdgeStyle;rounded=0;orthogonalLoop=1;jettySize=auto;html=1;" edge="1" parent="WIyWlLk6GJQsqaUBKTNV-1" source="YRQwu3OQHLb-Ya9GeAHd-48" target="YRQwu3OQHLb-Ya9GeAHd-50">
          <mxGeometry relative="1" as="geometry" />
        </mxCell>
        <mxCell id="YRQwu3OQHLb-Ya9GeAHd-52" value="No" style="edgeLabel;html=1;align=center;verticalAlign=middle;resizable=0;points=[];" vertex="1" connectable="0" parent="YRQwu3OQHLb-Ya9GeAHd-51">
          <mxGeometry x="-0.0298" y="2" relative="1" as="geometry">
            <mxPoint x="-1" as="offset" />
          </mxGeometry>
        </mxCell>
        <mxCell id="YRQwu3OQHLb-Ya9GeAHd-56" value="" style="edgeStyle=orthogonalEdgeStyle;rounded=0;orthogonalLoop=1;jettySize=auto;html=1;" edge="1" parent="WIyWlLk6GJQsqaUBKTNV-1" source="YRQwu3OQHLb-Ya9GeAHd-48" target="YRQwu3OQHLb-Ya9GeAHd-55">
          <mxGeometry relative="1" as="geometry" />
        </mxCell>
        <mxCell id="YRQwu3OQHLb-Ya9GeAHd-59" value="Yes" style="edgeLabel;html=1;align=center;verticalAlign=middle;resizable=0;points=[];" vertex="1" connectable="0" parent="YRQwu3OQHLb-Ya9GeAHd-56">
          <mxGeometry x="-0.2839" y="1" relative="1" as="geometry">
            <mxPoint x="-1" y="1" as="offset" />
          </mxGeometry>
        </mxCell>
        <mxCell id="YRQwu3OQHLb-Ya9GeAHd-48" value="method" style="rhombus;whiteSpace=wrap;html=1;rounded=1;glass=0;strokeWidth=1;shadow=0;" vertex="1" parent="WIyWlLk6GJQsqaUBKTNV-1">
          <mxGeometry x="1600" y="542.5" width="120" height="50" as="geometry" />
        </mxCell>
        <mxCell id="YRQwu3OQHLb-Ya9GeAHd-50" value="return 501" style="whiteSpace=wrap;html=1;rounded=1;glass=0;strokeWidth=1;shadow=0;fillColor=#d5e8d4;strokeColor=#82b366;" vertex="1" parent="WIyWlLk6GJQsqaUBKTNV-1">
          <mxGeometry x="1780" y="550" width="120" height="35" as="geometry" />
        </mxCell>
        <mxCell id="YRQwu3OQHLb-Ya9GeAHd-53" value="return [path]" style="whiteSpace=wrap;html=1;rounded=1;glass=0;strokeWidth=1;shadow=0;fillColor=#d5e8d4;strokeColor=#82b366;" vertex="1" parent="WIyWlLk6GJQsqaUBKTNV-1">
          <mxGeometry x="1780" y="641" width="120" height="34.5" as="geometry" />
        </mxCell>
        <mxCell id="YRQwu3OQHLb-Ya9GeAHd-57" value="" style="edgeStyle=orthogonalEdgeStyle;rounded=0;orthogonalLoop=1;jettySize=auto;html=1;" edge="1" parent="WIyWlLk6GJQsqaUBKTNV-1" source="YRQwu3OQHLb-Ya9GeAHd-55" target="YRQwu3OQHLb-Ya9GeAHd-53">
          <mxGeometry relative="1" as="geometry" />
        </mxCell>
        <mxCell id="YRQwu3OQHLb-Ya9GeAHd-58" value="Yes" style="edgeLabel;html=1;align=center;verticalAlign=middle;resizable=0;points=[];" vertex="1" connectable="0" parent="YRQwu3OQHLb-Ya9GeAHd-57">
          <mxGeometry x="-0.0464" y="-1" relative="1" as="geometry">
            <mxPoint y="-3" as="offset" />
          </mxGeometry>
        </mxCell>
        <mxCell id="YRQwu3OQHLb-Ya9GeAHd-91" value="" style="edgeStyle=orthogonalEdgeStyle;rounded=0;orthogonalLoop=1;jettySize=auto;html=1;" edge="1" parent="WIyWlLk6GJQsqaUBKTNV-1" source="YRQwu3OQHLb-Ya9GeAHd-55" target="YRQwu3OQHLb-Ya9GeAHd-88">
          <mxGeometry relative="1" as="geometry" />
        </mxCell>
        <mxCell id="YRQwu3OQHLb-Ya9GeAHd-93" value="No" style="edgeLabel;html=1;align=center;verticalAlign=middle;resizable=0;points=[];" vertex="1" connectable="0" parent="YRQwu3OQHLb-Ya9GeAHd-91">
          <mxGeometry x="-0.458" y="1" relative="1" as="geometry">
            <mxPoint as="offset" />
          </mxGeometry>
        </mxCell>
        <mxCell id="YRQwu3OQHLb-Ya9GeAHd-55" value="return" style="rhombus;whiteSpace=wrap;html=1;rounded=1;glass=0;strokeWidth=1;shadow=0;" vertex="1" parent="WIyWlLk6GJQsqaUBKTNV-1">
          <mxGeometry x="1600" y="633.25" width="120" height="50" as="geometry" />
        </mxCell>
        <mxCell id="YRQwu3OQHLb-Ya9GeAHd-80" value="" style="edgeStyle=orthogonalEdgeStyle;rounded=0;orthogonalLoop=1;jettySize=auto;html=1;" edge="1" parent="WIyWlLk6GJQsqaUBKTNV-1" source="YRQwu3OQHLb-Ya9GeAHd-73" target="YRQwu3OQHLb-Ya9GeAHd-79">
          <mxGeometry relative="1" as="geometry" />
        </mxCell>
        <mxCell id="YRQwu3OQHLb-Ya9GeAHd-81" value="Yes" style="edgeLabel;html=1;align=center;verticalAlign=middle;resizable=0;points=[];" vertex="1" connectable="0" parent="YRQwu3OQHLb-Ya9GeAHd-80">
          <mxGeometry x="-0.1507" y="1" relative="1" as="geometry">
            <mxPoint as="offset" />
          </mxGeometry>
        </mxCell>
        <mxCell id="YRQwu3OQHLb-Ya9GeAHd-139" style="edgeStyle=orthogonalEdgeStyle;rounded=0;orthogonalLoop=1;jettySize=auto;html=1;" edge="1" parent="WIyWlLk6GJQsqaUBKTNV-1" source="YRQwu3OQHLb-Ya9GeAHd-73" target="YRQwu3OQHLb-Ya9GeAHd-131">
          <mxGeometry relative="1" as="geometry" />
        </mxCell>
        <mxCell id="YRQwu3OQHLb-Ya9GeAHd-140" value="No" style="edgeLabel;html=1;align=center;verticalAlign=middle;resizable=0;points=[];" vertex="1" connectable="0" parent="YRQwu3OQHLb-Ya9GeAHd-139">
          <mxGeometry x="-0.6851" relative="1" as="geometry">
            <mxPoint as="offset" />
          </mxGeometry>
        </mxCell>
        <mxCell id="YRQwu3OQHLb-Ya9GeAHd-73" value="isDirectory" style="rhombus;whiteSpace=wrap;html=1;rounded=1;glass=0;strokeWidth=1;shadow=0;" vertex="1" parent="WIyWlLk6GJQsqaUBKTNV-1">
          <mxGeometry x="1600" y="1000" width="120" height="50" as="geometry" />
        </mxCell>
        <mxCell id="YRQwu3OQHLb-Ya9GeAHd-83" value="" style="edgeStyle=orthogonalEdgeStyle;rounded=0;orthogonalLoop=1;jettySize=auto;html=1;" edge="1" parent="WIyWlLk6GJQsqaUBKTNV-1" source="YRQwu3OQHLb-Ya9GeAHd-79" target="YRQwu3OQHLb-Ya9GeAHd-82">
          <mxGeometry relative="1" as="geometry" />
        </mxCell>
        <mxCell id="YRQwu3OQHLb-Ya9GeAHd-84" value="No" style="edgeLabel;html=1;align=center;verticalAlign=middle;resizable=0;points=[];" vertex="1" connectable="0" parent="YRQwu3OQHLb-Ya9GeAHd-83">
          <mxGeometry x="-0.1942" y="1" relative="1" as="geometry">
            <mxPoint as="offset" />
          </mxGeometry>
        </mxCell>
        <mxCell id="YRQwu3OQHLb-Ya9GeAHd-122" value="" style="edgeStyle=orthogonalEdgeStyle;rounded=0;orthogonalLoop=1;jettySize=auto;html=1;" edge="1" parent="WIyWlLk6GJQsqaUBKTNV-1" source="YRQwu3OQHLb-Ya9GeAHd-79" target="YRQwu3OQHLb-Ya9GeAHd-121">
          <mxGeometry relative="1" as="geometry" />
        </mxCell>
        <mxCell id="YRQwu3OQHLb-Ya9GeAHd-123" value="Yes" style="edgeLabel;html=1;align=center;verticalAlign=middle;resizable=0;points=[];" vertex="1" connectable="0" parent="YRQwu3OQHLb-Ya9GeAHd-122">
          <mxGeometry x="-0.2819" relative="1" as="geometry">
            <mxPoint as="offset" />
          </mxGeometry>
        </mxCell>
        <mxCell id="YRQwu3OQHLb-Ya9GeAHd-79" value="autoindex" style="rhombus;whiteSpace=wrap;html=1;rounded=1;glass=0;strokeWidth=1;shadow=0;" vertex="1" parent="WIyWlLk6GJQsqaUBKTNV-1">
          <mxGeometry x="1760" y="1000" width="120" height="50" as="geometry" />
        </mxCell>
        <mxCell id="YRQwu3OQHLb-Ya9GeAHd-126" value="" style="edgeStyle=orthogonalEdgeStyle;rounded=0;orthogonalLoop=1;jettySize=auto;html=1;" edge="1" parent="WIyWlLk6GJQsqaUBKTNV-1" source="YRQwu3OQHLb-Ya9GeAHd-82" target="YRQwu3OQHLb-Ya9GeAHd-125">
          <mxGeometry relative="1" as="geometry" />
        </mxCell>
        <mxCell id="YRQwu3OQHLb-Ya9GeAHd-127" value="Yes" style="edgeLabel;html=1;align=center;verticalAlign=middle;resizable=0;points=[];" vertex="1" connectable="0" parent="YRQwu3OQHLb-Ya9GeAHd-126">
          <mxGeometry x="-0.3865" y="1" relative="1" as="geometry">
            <mxPoint x="6" as="offset" />
          </mxGeometry>
        </mxCell>
        <mxCell id="YRQwu3OQHLb-Ya9GeAHd-151" value="" style="edgeStyle=orthogonalEdgeStyle;rounded=0;orthogonalLoop=1;jettySize=auto;html=1;" edge="1" parent="WIyWlLk6GJQsqaUBKTNV-1" source="YRQwu3OQHLb-Ya9GeAHd-82" target="YRQwu3OQHLb-Ya9GeAHd-131">
          <mxGeometry relative="1" as="geometry" />
        </mxCell>
        <mxCell id="YRQwu3OQHLb-Ya9GeAHd-152" value="No" style="edgeLabel;html=1;align=center;verticalAlign=middle;resizable=0;points=[];" vertex="1" connectable="0" parent="YRQwu3OQHLb-Ya9GeAHd-151">
          <mxGeometry x="-0.239" y="-2" relative="1" as="geometry">
            <mxPoint x="-2" as="offset" />
          </mxGeometry>
        </mxCell>
        <mxCell id="YRQwu3OQHLb-Ya9GeAHd-82" value="index" style="rhombus;whiteSpace=wrap;html=1;rounded=1;glass=0;strokeWidth=1;shadow=0;" vertex="1" parent="WIyWlLk6GJQsqaUBKTNV-1">
          <mxGeometry x="1760" y="1084.5" width="120" height="50" as="geometry" />
        </mxCell>
        <mxCell id="YRQwu3OQHLb-Ya9GeAHd-101" value="" style="edgeStyle=orthogonalEdgeStyle;rounded=0;orthogonalLoop=1;jettySize=auto;html=1;" edge="1" parent="WIyWlLk6GJQsqaUBKTNV-1" source="YRQwu3OQHLb-Ya9GeAHd-88" target="YRQwu3OQHLb-Ya9GeAHd-100">
          <mxGeometry relative="1" as="geometry" />
        </mxCell>
        <mxCell id="YRQwu3OQHLb-Ya9GeAHd-102" value="No" style="edgeLabel;html=1;align=center;verticalAlign=middle;resizable=0;points=[];" vertex="1" connectable="0" parent="YRQwu3OQHLb-Ya9GeAHd-101">
          <mxGeometry x="0.257" y="-2" relative="1" as="geometry">
            <mxPoint x="2" as="offset" />
          </mxGeometry>
        </mxCell>
        <mxCell id="YRQwu3OQHLb-Ya9GeAHd-173" value="" style="edgeStyle=orthogonalEdgeStyle;rounded=0;orthogonalLoop=1;jettySize=auto;html=1;" edge="1" parent="WIyWlLk6GJQsqaUBKTNV-1" source="YRQwu3OQHLb-Ya9GeAHd-88" target="YRQwu3OQHLb-Ya9GeAHd-172">
          <mxGeometry relative="1" as="geometry" />
        </mxCell>
        <mxCell id="YRQwu3OQHLb-Ya9GeAHd-88" value="isCGI" style="rhombus;whiteSpace=wrap;html=1;rounded=1;glass=0;strokeWidth=1;shadow=0;" vertex="1" parent="WIyWlLk6GJQsqaUBKTNV-1">
          <mxGeometry x="1600" y="715" width="120" height="50" as="geometry" />
        </mxCell>
        <mxCell id="YRQwu3OQHLb-Ya9GeAHd-104" value="" style="edgeStyle=orthogonalEdgeStyle;rounded=0;orthogonalLoop=1;jettySize=auto;html=1;" edge="1" parent="WIyWlLk6GJQsqaUBKTNV-1" source="YRQwu3OQHLb-Ya9GeAHd-100" target="YRQwu3OQHLb-Ya9GeAHd-103">
          <mxGeometry relative="1" as="geometry" />
        </mxCell>
        <mxCell id="YRQwu3OQHLb-Ya9GeAHd-105" value="No" style="edgeLabel;html=1;align=center;verticalAlign=middle;resizable=0;points=[];" vertex="1" connectable="0" parent="YRQwu3OQHLb-Ya9GeAHd-104">
          <mxGeometry x="-0.0528" relative="1" as="geometry">
            <mxPoint as="offset" />
          </mxGeometry>
        </mxCell>
        <mxCell id="YRQwu3OQHLb-Ya9GeAHd-114" value="" style="edgeStyle=orthogonalEdgeStyle;rounded=0;orthogonalLoop=1;jettySize=auto;html=1;" edge="1" parent="WIyWlLk6GJQsqaUBKTNV-1" source="YRQwu3OQHLb-Ya9GeAHd-100" target="YRQwu3OQHLb-Ya9GeAHd-113">
          <mxGeometry relative="1" as="geometry" />
        </mxCell>
        <mxCell id="YRQwu3OQHLb-Ya9GeAHd-115" value="Yes" style="edgeLabel;html=1;align=center;verticalAlign=middle;resizable=0;points=[];" vertex="1" connectable="0" parent="YRQwu3OQHLb-Ya9GeAHd-114">
          <mxGeometry x="-0.3481" y="-3" relative="1" as="geometry">
            <mxPoint x="2" y="-1" as="offset" />
          </mxGeometry>
        </mxCell>
        <mxCell id="YRQwu3OQHLb-Ya9GeAHd-100" value="root" style="rhombus;whiteSpace=wrap;html=1;rounded=1;glass=0;strokeWidth=1;shadow=0;" vertex="1" parent="WIyWlLk6GJQsqaUBKTNV-1">
          <mxGeometry x="1600" y="795" width="120" height="50" as="geometry" />
        </mxCell>
        <mxCell id="YRQwu3OQHLb-Ya9GeAHd-112" style="edgeStyle=orthogonalEdgeStyle;rounded=0;orthogonalLoop=1;jettySize=auto;html=1;entryX=1;entryY=0.5;entryDx=0;entryDy=0;" edge="1" parent="WIyWlLk6GJQsqaUBKTNV-1" source="YRQwu3OQHLb-Ya9GeAHd-103" target="YRQwu3OQHLb-Ya9GeAHd-108">
          <mxGeometry relative="1" as="geometry">
            <mxPoint x="1830" y="890" as="targetPoint" />
            <Array as="points">
              <mxPoint x="1840" y="960" />
            </Array>
          </mxGeometry>
        </mxCell>
        <mxCell id="YRQwu3OQHLb-Ya9GeAHd-103" value="set root(_root)" style="whiteSpace=wrap;html=1;rounded=1;glass=0;strokeWidth=1;shadow=0;" vertex="1" parent="WIyWlLk6GJQsqaUBKTNV-1">
          <mxGeometry x="1780" y="800" width="120" height="40" as="geometry" />
        </mxCell>
        <mxCell id="YRQwu3OQHLb-Ya9GeAHd-111" value="" style="edgeStyle=orthogonalEdgeStyle;rounded=0;orthogonalLoop=1;jettySize=auto;html=1;" edge="1" parent="WIyWlLk6GJQsqaUBKTNV-1" source="YRQwu3OQHLb-Ya9GeAHd-108" target="YRQwu3OQHLb-Ya9GeAHd-73">
          <mxGeometry relative="1" as="geometry" />
        </mxCell>
        <mxCell id="YRQwu3OQHLb-Ya9GeAHd-108" value="" style="ellipse;whiteSpace=wrap;html=1;rounded=1;glass=0;strokeWidth=1;shadow=0;" vertex="1" parent="WIyWlLk6GJQsqaUBKTNV-1">
          <mxGeometry x="1650" y="950" width="20" height="20" as="geometry" />
        </mxCell>
        <mxCell id="YRQwu3OQHLb-Ya9GeAHd-116" value="" style="edgeStyle=orthogonalEdgeStyle;rounded=0;orthogonalLoop=1;jettySize=auto;html=1;" edge="1" parent="WIyWlLk6GJQsqaUBKTNV-1" source="YRQwu3OQHLb-Ya9GeAHd-113" target="YRQwu3OQHLb-Ya9GeAHd-108">
          <mxGeometry relative="1" as="geometry" />
        </mxCell>
        <mxCell id="YRQwu3OQHLb-Ya9GeAHd-113" value="set root(root)" style="whiteSpace=wrap;html=1;rounded=1;glass=0;strokeWidth=1;shadow=0;" vertex="1" parent="WIyWlLk6GJQsqaUBKTNV-1">
          <mxGeometry x="1600" y="879" width="120" height="40" as="geometry" />
        </mxCell>
        <mxCell id="YRQwu3OQHLb-Ya9GeAHd-145" style="edgeStyle=orthogonalEdgeStyle;rounded=0;orthogonalLoop=1;jettySize=auto;html=1;entryX=0.5;entryY=0;entryDx=0;entryDy=0;" edge="1" parent="WIyWlLk6GJQsqaUBKTNV-1" source="YRQwu3OQHLb-Ya9GeAHd-121" target="YRQwu3OQHLb-Ya9GeAHd-143">
          <mxGeometry relative="1" as="geometry" />
        </mxCell>
        <mxCell id="YRQwu3OQHLb-Ya9GeAHd-121" value="set root/indexof.html" style="whiteSpace=wrap;html=1;rounded=1;glass=0;strokeWidth=1;shadow=0;" vertex="1" parent="WIyWlLk6GJQsqaUBKTNV-1">
          <mxGeometry x="1930" y="1007.5" width="120" height="35" as="geometry" />
        </mxCell>
        <mxCell id="YRQwu3OQHLb-Ya9GeAHd-144" value="" style="edgeStyle=orthogonalEdgeStyle;rounded=0;orthogonalLoop=1;jettySize=auto;html=1;" edge="1" parent="WIyWlLk6GJQsqaUBKTNV-1" source="YRQwu3OQHLb-Ya9GeAHd-125" target="YRQwu3OQHLb-Ya9GeAHd-143">
          <mxGeometry relative="1" as="geometry" />
        </mxCell>
        <mxCell id="YRQwu3OQHLb-Ya9GeAHd-125" value="set root/index.html" style="whiteSpace=wrap;html=1;rounded=1;glass=0;strokeWidth=1;shadow=0;" vertex="1" parent="WIyWlLk6GJQsqaUBKTNV-1">
          <mxGeometry x="1930" y="1092" width="120" height="35" as="geometry" />
        </mxCell>
        <mxCell id="YRQwu3OQHLb-Ya9GeAHd-149" value="" style="edgeStyle=orthogonalEdgeStyle;rounded=0;orthogonalLoop=1;jettySize=auto;html=1;" edge="1" parent="WIyWlLk6GJQsqaUBKTNV-1" source="YRQwu3OQHLb-Ya9GeAHd-131" target="YRQwu3OQHLb-Ya9GeAHd-148">
          <mxGeometry relative="1" as="geometry" />
        </mxCell>
        <mxCell id="YRQwu3OQHLb-Ya9GeAHd-131" value="set root/arg" style="whiteSpace=wrap;html=1;rounded=1;glass=0;strokeWidth=1;shadow=0;" vertex="1" parent="WIyWlLk6GJQsqaUBKTNV-1">
          <mxGeometry x="1600" y="1090.75" width="120" height="37.5" as="geometry" />
        </mxCell>
        <mxCell id="YRQwu3OQHLb-Ya9GeAHd-158" value="" style="edgeStyle=orthogonalEdgeStyle;rounded=0;orthogonalLoop=1;jettySize=auto;html=1;" edge="1" parent="WIyWlLk6GJQsqaUBKTNV-1" source="YRQwu3OQHLb-Ya9GeAHd-137" target="YRQwu3OQHLb-Ya9GeAHd-157">
          <mxGeometry relative="1" as="geometry" />
        </mxCell>
        <mxCell id="YRQwu3OQHLb-Ya9GeAHd-159" value="ok" style="edgeLabel;html=1;align=center;verticalAlign=middle;resizable=0;points=[];" vertex="1" connectable="0" parent="YRQwu3OQHLb-Ya9GeAHd-158">
          <mxGeometry x="-0.1003" y="1" relative="1" as="geometry">
            <mxPoint x="-1" as="offset" />
          </mxGeometry>
        </mxCell>
        <mxCell id="YRQwu3OQHLb-Ya9GeAHd-162" value="" style="edgeStyle=orthogonalEdgeStyle;rounded=0;orthogonalLoop=1;jettySize=auto;html=1;" edge="1" parent="WIyWlLk6GJQsqaUBKTNV-1" source="YRQwu3OQHLb-Ya9GeAHd-137" target="YRQwu3OQHLb-Ya9GeAHd-161">
          <mxGeometry relative="1" as="geometry" />
        </mxCell>
        <mxCell id="YRQwu3OQHLb-Ya9GeAHd-163" value="fail" style="edgeLabel;html=1;align=center;verticalAlign=middle;resizable=0;points=[];" vertex="1" connectable="0" parent="YRQwu3OQHLb-Ya9GeAHd-162">
          <mxGeometry x="0.0195" y="1" relative="1" as="geometry">
            <mxPoint x="-5" as="offset" />
          </mxGeometry>
        </mxCell>
        <mxCell id="YRQwu3OQHLb-Ya9GeAHd-137" value="open" style="rhombus;whiteSpace=wrap;html=1;rounded=1;glass=0;strokeWidth=1;shadow=0;" vertex="1" parent="WIyWlLk6GJQsqaUBKTNV-1">
          <mxGeometry x="1600" y="1225" width="120" height="50" as="geometry" />
        </mxCell>
        <mxCell id="YRQwu3OQHLb-Ya9GeAHd-147" style="edgeStyle=orthogonalEdgeStyle;rounded=0;orthogonalLoop=1;jettySize=auto;html=1;entryX=1;entryY=0.5;entryDx=0;entryDy=0;" edge="1" parent="WIyWlLk6GJQsqaUBKTNV-1" source="YRQwu3OQHLb-Ya9GeAHd-143" target="YRQwu3OQHLb-Ya9GeAHd-148">
          <mxGeometry relative="1" as="geometry">
            <Array as="points">
              <mxPoint x="2106" y="1180" />
            </Array>
          </mxGeometry>
        </mxCell>
        <mxCell id="YRQwu3OQHLb-Ya9GeAHd-143" value="" style="ellipse;whiteSpace=wrap;html=1;rounded=1;glass=0;strokeWidth=1;shadow=0;" vertex="1" parent="WIyWlLk6GJQsqaUBKTNV-1">
          <mxGeometry x="2096" y="1099.5" width="20" height="20" as="geometry" />
        </mxCell>
        <mxCell id="YRQwu3OQHLb-Ya9GeAHd-150" value="" style="edgeStyle=orthogonalEdgeStyle;rounded=0;orthogonalLoop=1;jettySize=auto;html=1;" edge="1" parent="WIyWlLk6GJQsqaUBKTNV-1" source="YRQwu3OQHLb-Ya9GeAHd-148" target="YRQwu3OQHLb-Ya9GeAHd-137">
          <mxGeometry relative="1" as="geometry" />
        </mxCell>
        <mxCell id="YRQwu3OQHLb-Ya9GeAHd-148" value="" style="ellipse;whiteSpace=wrap;html=1;rounded=1;glass=0;strokeWidth=1;shadow=0;" vertex="1" parent="WIyWlLk6GJQsqaUBKTNV-1">
          <mxGeometry x="1650" y="1170" width="20" height="20" as="geometry" />
        </mxCell>
        <mxCell id="YRQwu3OQHLb-Ya9GeAHd-157" value="load into buffer" style="whiteSpace=wrap;html=1;rounded=1;glass=0;strokeWidth=1;shadow=0;fillColor=#d5e8d4;strokeColor=#82b366;" vertex="1" parent="WIyWlLk6GJQsqaUBKTNV-1">
          <mxGeometry x="1600" y="1320" width="120" height="40" as="geometry" />
        </mxCell>
        <mxCell id="YRQwu3OQHLb-Ya9GeAHd-165" value="" style="edgeStyle=orthogonalEdgeStyle;rounded=0;orthogonalLoop=1;jettySize=auto;html=1;" edge="1" parent="WIyWlLk6GJQsqaUBKTNV-1" source="YRQwu3OQHLb-Ya9GeAHd-161" target="YRQwu3OQHLb-Ya9GeAHd-164">
          <mxGeometry relative="1" as="geometry" />
        </mxCell>
        <mxCell id="YRQwu3OQHLb-Ya9GeAHd-166" value="Yes" style="edgeLabel;html=1;align=center;verticalAlign=middle;resizable=0;points=[];" vertex="1" connectable="0" parent="YRQwu3OQHLb-Ya9GeAHd-165">
          <mxGeometry x="-0.1436" relative="1" as="geometry">
            <mxPoint y="-1" as="offset" />
          </mxGeometry>
        </mxCell>
        <mxCell id="YRQwu3OQHLb-Ya9GeAHd-168" value="" style="edgeStyle=orthogonalEdgeStyle;rounded=0;orthogonalLoop=1;jettySize=auto;html=1;" edge="1" parent="WIyWlLk6GJQsqaUBKTNV-1" source="YRQwu3OQHLb-Ya9GeAHd-161" target="YRQwu3OQHLb-Ya9GeAHd-167">
          <mxGeometry relative="1" as="geometry" />
        </mxCell>
        <mxCell id="YRQwu3OQHLb-Ya9GeAHd-169" value="Yes" style="edgeLabel;html=1;align=center;verticalAlign=middle;resizable=0;points=[];" vertex="1" connectable="0" parent="YRQwu3OQHLb-Ya9GeAHd-168">
          <mxGeometry x="-0.282" y="-1" relative="1" as="geometry">
            <mxPoint x="2" y="-1" as="offset" />
          </mxGeometry>
        </mxCell>
        <mxCell id="YRQwu3OQHLb-Ya9GeAHd-161" value="defaultErrorPage" style="rhombus;whiteSpace=wrap;html=1;rounded=1;glass=0;strokeWidth=1;shadow=0;" vertex="1" parent="WIyWlLk6GJQsqaUBKTNV-1">
          <mxGeometry x="1760" y="1225" width="120" height="50" as="geometry" />
        </mxCell>
        <mxCell id="YRQwu3OQHLb-Ya9GeAHd-171" value="" style="edgeStyle=orthogonalEdgeStyle;rounded=0;orthogonalLoop=1;jettySize=auto;html=1;" edge="1" parent="WIyWlLk6GJQsqaUBKTNV-1" source="YRQwu3OQHLb-Ya9GeAHd-164" target="YRQwu3OQHLb-Ya9GeAHd-157">
          <mxGeometry relative="1" as="geometry" />
        </mxCell>
        <mxCell id="YRQwu3OQHLb-Ya9GeAHd-164" value="set root/error_page.html" style="whiteSpace=wrap;html=1;rounded=1;glass=0;strokeWidth=1;shadow=0;" vertex="1" parent="WIyWlLk6GJQsqaUBKTNV-1">
          <mxGeometry x="1760" y="1320" width="120" height="40.5" as="geometry" />
        </mxCell>
        <mxCell id="YRQwu3OQHLb-Ya9GeAHd-167" value="return 404" style="whiteSpace=wrap;html=1;rounded=1;glass=0;strokeWidth=1;shadow=0;fillColor=#d5e8d4;strokeColor=#82b366;" vertex="1" parent="WIyWlLk6GJQsqaUBKTNV-1">
          <mxGeometry x="1930" y="1230" width="120" height="40" as="geometry" />
        </mxCell>
        <mxCell id="YRQwu3OQHLb-Ya9GeAHd-172" value="perform CGI" style="whiteSpace=wrap;html=1;rounded=1;glass=0;strokeWidth=1;shadow=0;" vertex="1" parent="WIyWlLk6GJQsqaUBKTNV-1">
          <mxGeometry x="1960" y="710" width="120" height="60" as="geometry" />
        </mxCell>
      </root>
    </mxGraphModel>
  </diagram>
</mxfile>
